<mxfile host="app.diagrams.net" modified="2022-08-11T12:42:21.989Z" agent="5.0 (Windows NT 10.0; Win64; x64) AppleWebKit/537.36 (KHTML, like Gecko) Chrome/104.0.0.0 Safari/537.36" etag="04CGwzSu8XEUJPhC4mds" version="20.2.3" type="github">
  <diagram id="QPlH4QwbmqNAJRejdnI0" name="페이지-1">
    <mxGraphModel dx="1329" dy="834" grid="1" gridSize="10" guides="1" tooltips="1" connect="1" arrows="1" fold="1" page="1" pageScale="1" pageWidth="827" pageHeight="1169" math="0" shadow="0">
      <root>
        <mxCell id="0" />
        <mxCell id="1" parent="0" />
        <mxCell id="54R5g4XFbIWa8T8a8VTI-1" value="" style="strokeWidth=1;shadow=0;dashed=1;align=center;html=1;shape=mxgraph.mockup.containers.browserWindow;rSize=0;strokeColor=#bbb;mainText=,;recursiveResize=0;rounded=0;labelBackgroundColor=none;fontFamily=Verdana;fontSize=12;container=0;" vertex="1" parent="1">
          <mxGeometry x="31" y="20" width="1057" height="1000" as="geometry" />
        </mxCell>
        <mxCell id="54R5g4XFbIWa8T8a8VTI-22" value="TEMPLATE" style="strokeWidth=1;shadow=0;dashed=0;align=center;html=1;shape=mxgraph.mockup.containers.anchor;fontSize=17;fontColor=#666666;align=left;" vertex="1" parent="1">
          <mxGeometry x="91" y="32" width="110" height="26" as="geometry" />
        </mxCell>
        <mxCell id="54R5g4XFbIWa8T8a8VTI-23" value="http://www.a-rms.net/313devgrp/arms/pdServiceVersion.html" style="strokeWidth=1;shadow=0;dashed=0;align=center;html=1;shape=mxgraph.mockup.containers.anchor;rSize=0;fontSize=17;fontColor=#666666;align=left;" vertex="1" parent="1">
          <mxGeometry x="161" y="80" width="250" height="26" as="geometry" />
        </mxCell>
        <mxCell id="54R5g4XFbIWa8T8a8VTI-24" value="&lt;font style=&quot;font-size: 22px; line-height: 1;&quot;&gt;atlassian &lt;b&gt;RMS&lt;/b&gt;&lt;/font&gt;" style="text;html=1;points=[];align=left;verticalAlign=top;spacingTop=-6;fontSize=30;fontFamily=Verdana;spacing=0;" vertex="1" parent="1">
          <mxGeometry x="49" y="147" width="272" height="40" as="geometry" />
        </mxCell>
        <mxCell id="54R5g4XFbIWa8T8a8VTI-44" value="&lt;font size=&quot;1&quot; face=&quot;menlo, monospace&quot; color=&quot;#202124&quot;&gt;&lt;span style=&quot;background-color: rgb(255, 255, 255); font-size: 12px;&quot;&gt;CopyRight All Rights Reserved&lt;/span&gt;&lt;/font&gt;" style="text;html=1;points=[];align=left;verticalAlign=top;spacingTop=-4;fontSize=15;fontFamily=Verdana" vertex="1" parent="1">
          <mxGeometry x="890" y="970" width="170" height="30" as="geometry" />
        </mxCell>
        <mxCell id="54R5g4XFbIWa8T8a8VTI-76" value="" style="html=1;shadow=0;dashed=0;shape=mxgraph.bootstrap.rrect;rSize=5;strokeColor=#DFDFDF;html=1;whiteSpace=wrap;fillColor=#FFFFFF;fontColor=#000000;fontSize=13;" vertex="1" parent="1">
          <mxGeometry x="30" y="1060" width="1050" height="150" as="geometry" />
        </mxCell>
        <mxCell id="54R5g4XFbIWa8T8a8VTI-77" value="&lt;h3 style=&quot;margin: 0px; padding: 0px; border: 0px; font-variant-numeric: inherit; font-variant-east-asian: inherit; font-weight: inherit; font-stretch: inherit; font-size: 1.1em; line-height: 1.1em; font-family: &amp;quot;Droid Sans&amp;quot;, sans-serif; vertical-align: baseline; clear: none; width: auto;&quot;&gt;&lt;span class=&quot;http_method&quot; style=&quot;margin: 0px; padding: 0px; border: 0px; font: inherit; vertical-align: baseline;&quot;&gt;&lt;a href=&quot;http://127.0.0.1:31313/swagger-ui.html#!/user-pd-service-controller/getChildNodeUsingGET_89&quot; class=&quot;toggleOperation&quot; style=&quot;margin: 0px; padding: 7px 0px 4px; border: 0px; font-style: inherit; font-variant: inherit; font-weight: inherit; font-stretch: inherit; font-size: 0.7em; line-height: inherit; font-family: inherit; vertical-align: baseline; color: white; text-decoration-line: none; text-transform: uppercase; display: inline-block; width: 50px; text-align: center; border-radius: 2px; background-color: rgb(15, 106, 180);&quot;&gt;GET&lt;/a&gt;&amp;nbsp;&lt;/span&gt;&lt;span class=&quot;path&quot; style=&quot;margin: 0px; padding: 0px 0px 0px 10px; border: 0px; font: inherit; vertical-align: baseline;&quot;&gt;&lt;a href=&quot;http://127.0.0.1:31313/swagger-ui.html#!/user-pd-service-controller/getChildNodeUsingGET_89&quot; class=&quot;toggleOperation&quot; style=&quot;margin: 0px; padding: 0px; border: 0px; font: inherit; vertical-align: baseline; color: black;&quot;&gt;/auth-user/api/arms/pdservice/getChildNode.do&lt;/a&gt;&amp;nbsp;( 좌상단의 jsTree 호출 API : 지윤님 common.js 를 손볼 예정임. )&lt;/span&gt;&lt;/h3&gt;" style="strokeColor=inherit;fillColor=inherit;gradientColor=inherit;fontColor=inherit;html=1;shadow=0;dashed=0;shape=mxgraph.bootstrap.topButton;rSize=5;perimeter=none;whiteSpace=wrap;resizeWidth=1;align=left;spacing=10;fontSize=13;" vertex="1" parent="54R5g4XFbIWa8T8a8VTI-76">
          <mxGeometry width="1050" height="30" relative="1" as="geometry" />
        </mxCell>
        <mxCell id="54R5g4XFbIWa8T8a8VTI-78" value="&lt;h3 style=&quot;margin: 0px; padding: 0px; border: 0px; font-variant-numeric: inherit; font-variant-east-asian: inherit; font-weight: inherit; font-stretch: inherit; font-size: 1.1em; line-height: 1.1em; font-family: &amp;quot;Droid Sans&amp;quot;, sans-serif; vertical-align: baseline; clear: none; width: auto;&quot;&gt;&lt;span class=&quot;http_method&quot; style=&quot;margin: 0px; padding: 0px; border: 0px; font: inherit; vertical-align: baseline;&quot;&gt;&lt;a href=&quot;http://127.0.0.1:31313/swagger-ui.html#!/user-pd-service-controller/getNodeUsingGET_83&quot; class=&quot;toggleOperation&quot; style=&quot;margin: 0px; padding: 7px 0px 4px; border: 0px; font-style: inherit; font-variant: inherit; font-weight: inherit; font-stretch: inherit; font-size: 0.7em; line-height: inherit; font-family: inherit; vertical-align: baseline; color: white; text-decoration-line: none; text-transform: uppercase; display: inline-block; width: 50px; text-align: center; border-radius: 2px; background-color: rgb(15, 106, 180);&quot;&gt;GET&lt;/a&gt;&amp;nbsp;&lt;/span&gt;&lt;span class=&quot;path&quot; style=&quot;margin: 0px; padding: 0px 0px 0px 10px; border: 0px; font: inherit; vertical-align: baseline;&quot;&gt;&lt;a href=&quot;http://127.0.0.1:31313/swagger-ui.html#!/user-pd-service-controller/getNodeUsingGET_83&quot; class=&quot;toggleOperation&quot; style=&quot;margin: 0px; padding: 0px; border: 0px; font: inherit; vertical-align: baseline; color: black;&quot;&gt;/auth-user/api/arms/pdservice/getNode.do&lt;/a&gt;&amp;nbsp;( 좌상단의 jstree 클릭 후 우측 Viewer 에 컨텐츠 표시 API )&lt;/span&gt;&lt;/h3&gt;" style="strokeColor=inherit;fillColor=inherit;gradientColor=inherit;fontColor=inherit;html=1;shadow=0;dashed=0;perimeter=none;whiteSpace=wrap;resizeWidth=1;align=left;spacing=10;fontSize=13;" vertex="1" parent="54R5g4XFbIWa8T8a8VTI-76">
          <mxGeometry width="1050" height="30" relative="1" as="geometry">
            <mxPoint y="30" as="offset" />
          </mxGeometry>
        </mxCell>
        <mxCell id="54R5g4XFbIWa8T8a8VTI-79" value="" style="strokeColor=inherit;fillColor=inherit;gradientColor=inherit;fontColor=inherit;html=1;shadow=0;dashed=0;perimeter=none;whiteSpace=wrap;resizeWidth=1;align=left;spacing=10;fontSize=13;" vertex="1" parent="54R5g4XFbIWa8T8a8VTI-76">
          <mxGeometry width="1050" height="30" relative="1" as="geometry">
            <mxPoint y="60" as="offset" />
          </mxGeometry>
        </mxCell>
        <mxCell id="54R5g4XFbIWa8T8a8VTI-80" value="" style="strokeColor=inherit;fillColor=inherit;gradientColor=inherit;fontColor=inherit;html=1;shadow=0;dashed=0;perimeter=none;whiteSpace=wrap;resizeWidth=1;align=left;spacing=10;fontSize=13;" vertex="1" parent="54R5g4XFbIWa8T8a8VTI-76">
          <mxGeometry width="1050" height="30" relative="1" as="geometry">
            <mxPoint y="90" as="offset" />
          </mxGeometry>
        </mxCell>
        <mxCell id="54R5g4XFbIWa8T8a8VTI-81" value="" style="strokeColor=inherit;fillColor=inherit;gradientColor=inherit;fontColor=inherit;html=1;shadow=0;dashed=0;shape=mxgraph.bootstrap.bottomButton;rSize=5;perimeter=none;whiteSpace=wrap;resizeWidth=1;resizeHeight=0;align=left;spacing=10;fontSize=13;" vertex="1" parent="54R5g4XFbIWa8T8a8VTI-76">
          <mxGeometry y="1" width="1050" height="30" relative="1" as="geometry">
            <mxPoint y="-30" as="offset" />
          </mxGeometry>
        </mxCell>
        <mxCell id="54R5g4XFbIWa8T8a8VTI-82" value="&lt;font style=&quot;font-size: 13px;&quot;&gt;- Parameter&lt;br&gt;- c_id=숫자&lt;br&gt;- 아이디 숫자만 보내야 하며&lt;br&gt;- selectedNode Object는&lt;br&gt;- node_ 가 붙어있으므로&lt;br&gt;- replace 가 필요함&lt;br&gt;&lt;/font&gt;" style="strokeWidth=1;shadow=0;dashed=1;align=center;html=1;shape=mxgraph.mockup.text.bulletedList;textColor=#666666;mainText=,,,,;textSize=17;bulletStyle=none;strokeColor=default;fillColor=none;align=left;verticalAlign=top;fontSize=17;fontColor=#666666;" vertex="1" parent="1">
          <mxGeometry x="49" y="1240" width="181" height="149" as="geometry" />
        </mxCell>
        <mxCell id="54R5g4XFbIWa8T8a8VTI-83" value="&lt;font style=&quot;font-size: 13px;&quot;&gt;&lt;span style=&quot;color: rgb(0, 0, 0);&quot;&gt;제품.서비스 이름 : c_title&lt;br&gt;제품.서비스 책임자 : c_owner &lt;br&gt;제품.서비스 리뷰어 : c_reviewer01 ~ 05 &lt;br&gt;제품.서비스 마지막 편집자 : c_writer_name&lt;br&gt;&lt;/span&gt;&lt;span style=&quot;color: rgb(0, 0, 0);&quot;&gt;제품.서비스 마지막 편집자 CN : c_writer_cn&lt;br&gt;제품.서비스 마지막 편집자 이메일 : c_writer_mail &lt;br&gt;제품.서비스 마지막 편집일 : c_writer_date&lt;br&gt;&lt;/span&gt;&lt;span style=&quot;color: rgb(0, 0, 0);&quot;&gt;제품.서비스 내용 : c_contents ( CLOB 타입 ) &lt;br&gt;제품.서비스 업로드 파일 패스 : c_filepath&lt;br&gt;제품.서비스 업로드 파일명 : c_filename01 ~ 10&lt;/span&gt;&lt;br&gt;&lt;/font&gt;" style="strokeWidth=1;shadow=0;dashed=1;align=center;html=1;shape=mxgraph.mockup.text.bulletedList;textColor=#666666;mainText=,,,,;textSize=17;bulletStyle=none;strokeColor=default;fillColor=none;align=left;verticalAlign=top;fontSize=17;fontColor=#666666;" vertex="1" parent="1">
          <mxGeometry x="251" y="1240" width="289" height="220" as="geometry" />
        </mxCell>
        <mxCell id="54R5g4XFbIWa8T8a8VTI-98" value="" style="shape=image;imageAspect=0;aspect=fixed;verticalLabelPosition=bottom;verticalAlign=top;image=data:image/png,iVBORw0KGgoAAAANSUhEUgAAAMYAAAAoCAIAAAAqtxL4AAA0MUlEQVR42p18B5hUZZb2DZW6urs6grPGnZ24zo5hTEOSnATJoKOgEpooiAFoREQUJOccTYgBJAkIgiKKOjM6o+PszjyzE0Xd2YWuqk7Vlevue857q2h0/v9/nr98Hp+i+t7vfvf9znfCe875zJtu6VBSXOIYRiqVymYzxcXF2UzWsq3GxqayUCiZTHq83vpotDQU8no9+FMqnfZ4PF6PB9c3NDZWVFTYloXb06mUPxBIp9M+ny8WiwUCAUM/+I4x8cU0zWQi6Q/4TXy1zGgkGioLYSjcgmExouEY2Vw2l8v5/bjXyWbx3cFduMY0jfpofVlZGSaGoeLxRFEgkHMc3Nvc3FxSUoK54eKWlhZ8xy34vampqbS0FN8xn3A4HArJsxy9xe/34ymZTAaPKCoKJhLxQKCooaEe/8c4GD+RSAaDQVyD5+K7bVt4Y8uy9FnFLlaZrGCVFayaGptCipXX641Go/IsrzebyeBZNu70elPJJLCqrKiwbNtwHGAIfNKptM+fxwqDGk6spaU46GKVSCYC/oCpn0g0UhYqA0QuVh6ZpODjOHgXxSqnsyVWJtarrLwcE1as4kVFRU4OL55qcrHy4mJiZZlWSrBqzGPlj4TDXGvBKpXGemFN0ooVMOFo9fX1+L9eA3wSwAEDYtbJZAIPNbt174Ob8WxAgwfjSzKVsm07EPBj5RxZYD+AyOqgfBmMgmlhBl6VHvyIv+IZmJwJ2cpkgFFOPxn9PZPO5JwcbqGQ8XesNCaBLx4PnmbjCwbETPA9mUzhuYZpBIPFAELAdgwViFw6nSFwslq2je+8F3PTAQ2OY6rYYjSsPV4S85G94QGUchlwoXhhtZOJBKaBkSFP+KvKXCYYLML4GAVL5fN5ZRfZeGLK6/W5WFkWvyRTSfwJuCfiiVwBq2weKyCucgZYfC5W3kxWMMEOxBSBDHDGZhBM8DvkLJPByF6PYmUaWE7Byt8KK8vGlXg/PF6xSrbCKm3otLDhud9kjQSrDK7ENZgqsfL6ZHxMU5EyiLxe72Il6kPe/QJWeAusO67EVDF/DIIfub58EH7HNfK9a/c+GPb8+bo2barxOKgc7CfoA7wz0GloaCgvL3dXOpG0ZL96ACieCvgggliMaH099iWeYQuaWQi+7bGBRXOsGfeKPGFPxFvKysqxb3FNJBJp06YN7sS74BrsD8CABcO+gc5QCfNEImHoP2gIzBV36XrnKCJ6veowiJHfj5ngzSlhuAZza2xs5DX4BWMCI+4E6Bjgruh4gBTGhKxCfHWfBWUBDYO6zVCl0dDQCJ2kGtlDXegYMufzdefbVLcBmhgfz4KuxW4Wvd7QWFZehlstXWnMxKtYQaoC0IuOfOpFh5VB5oiVaVlYZrxJrDkGrNKZNF4h3tICHSPjWzb0E57lyHzMWLNiZShWsZaiILASsKBXBKukYgX9V+RihRUswbsIVjnZcn6frJrPn0qn8lhh/g2h0hCxirXEiBXeEfoMmMiu83hVM4nNwe3AChhSBBWrUGusIFJye8dbu9M6YOV05tj3Fr5g8fAvyCBXJan6LaFIWQpESpSZRR2OPSoaz3L1h6LnyJjpDODA7INFQYwju1nHobaHBOMa1ZmynlgJgAXxgpjqOBmaAMgu8MVleG0LqGFBdCsXKXb8k9/vUzsgH9o1fIG4AJeWljj2jEc/lANKP+YJCHANr8cHA/t1j/q8PvnuDwBN2eher+6iBOaWxypDjSu73yBWDt4Rlguahu+IcUxi5SFWNtYYchxPxOVX0bVexSpHrNI6JrZiUVAx9wdg+2AHBauii7Dic9O6QADXo7qhgJXYExcrKyNQXcBKtGcuK9eojsEq++Td8R2vAFtfDGkWZSa22tVtrbHCNcCkYH+oz4gGvgMrTAFK3fxp+84+DKBWqQn7OxQCIrguJe8v94hKgMr1emloVP161Bg59LrwMHyvq6tr26ataC3ss0QcqyIPy2YwDuQPmhZ/giVVOcYKmeG6cKisDLsMgnju3Lm2bdviuXhEc1NzsLjYJ5pZXCK/DCJvhT2BedJdgy2vrKzEFsXg4vOVldF/wiOwWLhYZSXJtwCC586dr66uEmcORl31HNARTa76AzeYop+aiTvmB3R0EA/WDHqlvLxCZcDE7xhTXt8EVk15rLzQUrKvkgksEvDxfgOrnKpVWACYTlg5waptHisdkwsjWHk8KjoOPDysCv6DZNSF6/COUN6YRGusVJcUAxbDvIAVIG0UrHwwqdjw8EErqyqpAhqbGomVuiLACuoDC+uh9gI2QON/zp2rrq7Gg2DT8V9pqBSgEU8gyS0EnU2scDvmKWZFXxN+JPSl2b1HXzyYzgGWOyF7FPKYhq6jH4pLMRZGhzhj6vDRoIGhXUUrqtIGoLB0eHOgBtUtvosfPkFaHSY/3hASpmpI9jGdSmgj2Dj6E7Z6rGnVH9DbEBpFFksC79LR717cBYBwK27E/wu+P98zox/cjvcU26++C6ahe9EQ/8kPXyeu+ywNvYXfYVIVIEvHhCtgQH/gWYAbm8QWnZRSpw1fxUbwTzJCOpXHChKZwMrhT3huXlcZAbXFok5MszgYbFas8IJAHWqQbhl2kWAFY21Z3CTYnDBMeAXqRUwbOOv8c4AXegszxyRxgaNSS80RIFayLS1OACuYEawCMn4qjdW5GKuABA3ifngUqxY6uOqfZcVEqr7XnY99kgpq/AHx5cYr4CB+swqG6EJgBR9J15FYmR06dsNy403wDuJ4mhZiH+xjny4VPXzGFxgaMs59D38I+6Ogn/A7pguBhY2HzyF7y7KhRaGcGN/B+kAm6MTBJ5O5wo+2LI07inVDi46mXwwZammJQeZUNxjwV6CT1YaYzc0x6gnGYsSOex3+nDrv4v7nRNwl2Kqvj+JZXt1D9Q0NlRWV4gpns8BX/cqMergJ+CUZsR0m3o7xCx5WV3e+qqpaR8thDuVl5bQ7LlYmsWogVph9C37HTlO3F1iVl5cl81iVKFaYVbiuDro5oFjFgFVpCUQTIgwcIJ0cE34nYz28GOaJPQBwLMUQ45h50x9Uvxj7pyUWw/wFHUOxKlasTAt+qouVgfgxCYsMjPNYlcn7ClaiKm11GKP1Uby7RyMDyADsgDoDuTxWaUYDeHfaWcGqpER0lWWdP+9iheHMzl16SiwNTDVWosTwBvoBWZFfQ/wkW76rc+eBjsUOkNAPNs3vo88PrwCTE40tesLENNWXMhhnJVXPiYyrPgAuft2XSdc/E0uh+hxerdfUCIARBO6lnqdBgaICxPSZCnEfP9jK6jLJDpYtLjojILCo64BxGKapfbSxWbPivsieE+VqWnxWWnS2aCt8iAm1PRZAvBTBSmJY/J2+hakKwFbtrwPKHsIcsBjACpINVY05xBUrv2Clcq86Hu8FlFQdesWXVV9KsUpCnjCLgOoDcex8/gtY2XmsxJJ6GQH8Y6xSaYiRi5UaE8VJNqr+k1iJiBqKVVbBglhgzgWs8JS02gH8k/Jkybun8S74vwivfnCNJajZ5k03dwyoP48ZwBZWV1XF1ZeS2Zsa39lWOByGzNLPx9AF/w7+hMQ4Kn94EvQKMMW86Z+K0REzJ/OjV3H+/DnIsm4nEzqgpKQUb44/QU8UF5fQGdS4r6jg5tOK06KRJhARV7uG2Wc0RCrQB+SZiDv+JLFuDoYjhfVTj5uSnXCXXP6Upp6Td6+PQg8BXOFmopHqqmr6OuFImPEdTbzYETFAnmgkAp8DWPkVK1IbGAc6u7KqilhlJf7365504PNBbymBl6bdz2jcB50tWCkPhz1JpwpDnTt/Hmsh3JLG49CFLlbAtiSPleonFyvE8DqTi7DKZEkP2bqFcjK+V/kIMbW4VzaDSIOsHcQJy8hxsrrhGXFjfJo8YoV/RpX3yqpjE41GqgQrCTIgJ8DE7NW7vyrDBB4riGPfeLzK2Xh0L4pJKpKII0PHs+AIe/XDDZpR/o37GyoNMieaXNDELW6EDzmDTYRPg80BrYu9jl/wklgSS30I8XPTmQLnwRhExvH5hD7JCw33JYMOS7cp4yn8Db4awKIZpXHktiuSeCRB+gDypPo8S8+Xm08kSY2XrWYCb638nqgNiWUkZhRdBawdNRx4LnddgbPJ81jwXYoYZxW8ZkMJsAJW2QtYWZAkYqWRWpbjyJ6MJ2ATMWdqEdg4yC4e7VMHOa5+ITkhYqX28WKs0rIHFCtbQr2LsFIe0bVLRgErwhK4gJWXjgox59uRvqH/SpdcfdZcJo+VxNe3dulJLYp9TCUclRinXPUeEEEUECC3lpQ1DmZ1laDSsX6GTr+hsREyx1Crvr6B/ARAEd+rvJwLFo3WV1VVKVvohQ+BOYn+M034N5iH0KGZNCwjrRiugbwrP2Qw/qLNwpWI+4QPE77Eg++cJ0CHtYW80qZg2pbsBNkAmA/2DYN8iXX9ATqYiqBjKV2CVcScGZSRU8aPUK5x8f8CnJJw4hIribgl8nEfHlPACo8VPgVYZ7MFrNTk5ogVV7qxsQEvSzoqWl+vWEEZCFjQkSIK2SxiTMXK9ZOIFW5pqK8XpJQOTUE6lSgnVpIzUE/DxSrnwPIIVrBfhgMZam6+gBWuKQVWmQJWotExDcTRxAp7IKMcSh4rkwwObZTan1ZYKXfdQqxgWIFQh07dOOmsOn3YK8yZYCrQydAlqg9UkEkWy740oOIBOiaknKlHfWr3d3HkZfva9A+UZ1LeRXlw1b0+1Z/YPbIV1JCb9PugmSCZ3AdUBhg/oDERw3had3oD6lfBUcjRFmNVcK+PvLB+RGlrYkS8Ro03gYJyVMJkYP4ZGdZWzyClhtTS8NNgMoQBr6kUNmxNLBYz1ClxsVK88E+xcUAmkRDb4YhC0O1rEiuJ9Wx5lpnHihktPMUWfysLkPEFblZaeUH8p9yHbHpVSz61yx7aI9Er6roFlfeyNaoV/izRCivlXV2sco5pfRMrCQ5aYZUjVhotCla4r8jFyiSfR27d9ZlUH9v6oYJkAo3yh9HMG25qzzjObs2VW+oJFrhyzc0pfegghrqI/827ojHlytNpxhQuV455Yx+3qa523Hxfc+m9a/dPqDzdddwTeZ9J+fRWXHkr/rc1V045y7NN5Mqz5K8LXDkZOe4q7JtQqFT1s5dZPOXKk5K/Kw6aSvo2NzWXlpaoGyqxksQ7ImzY0zHVVcJs1p0/36ZNm8z0dW/1Ng61G7UeWGnw39DQKL4RJMO26L15NHbDA/yBgKPz/7/mFSrwpsy1KW+ewZgRYOXmFYzmWKxUuW88DtfA9tkKVjgSAVZJwUpyX0WFvEI6VVpSSp/MxSqR9PkLWEHNCL9fGmqNlY/2TrEK0ZblsXK5cuZnC3kF3c8m5ETieo/nQl5BoGIOpo3Zs1d/N4faile9Y8Vrk64vMS58vjjarWalsM9pMhnq1tAvlneA6NDqY95qcXxMPDEG4T7gDLIDn9w/ofy93lPWyuwT9MyKlOWimqROojZSg5ghBRIU259NazKBfDSXyq/cvSGb228p36MTls0JNJmZusDXS+gkHLSjRJmtBKDS9WJJlb92lIMOMKdJvk08o4c2vtPHOd5v+koXq5xfdS2DIuGg9XtKvOOg6my4w2J5hfzE1s/mvHn1KarQY8PXsRQrn5Kf9DEkNlT9x8S8xtdp+GQaRyeoIcgzXYSV0worTT+Qd0BcggcJyakxMqYUEH3WGquc7qx/jBWjmdZ8PReikMtrlduQFRZ6TPl6NyGjS+5VR1sCxrvWvn5/1Xud71sF/0b8pJnbsEcP3HjH+soK7gndN0HN3xiQ8aDwIkIixCUH5MaZZHeYVI6pB4plcIY+fXBi+eluE1Z7xARQngrcHVUo5orxmVTH0zAl2helv5P2o8+82ymyof+s3dmMZg4kHoEuLC0N+SW9aqjOsNU8wYeLtm3bVnWnCAmQUnpA+C3Mk6QJnlvgolze3Oez87lCLrDEcRUV5BTUtfeSmM3IdrLIZEq0FSjCpnKURyavI1jFWsj5FTgt2G38jp3QGivTpWwy8DXhk/nUZaRvROJRsApSXj2s+1B5EKy61Dza99K/H13w/KmBE5d/++9z1x9xsbI9xFNrPbxar1HAym8YfSc99mPzk4UbDov4InZr2/aStOpOyiupFMmNFheb+bgeOgkSlMdKwhTNq4oOw+Rl1Tp17oGNYrpy6mFebPCi3RPK3+02dq1k74UIGLzswLgf/HlH/wdfVSMttHJW/C6xweS1Va3A/xchYAEJdxWDAvWcpI7AM2KJGL4uY1ar9wN54v6j8DEap52momKGhF80ojaT09ad7hTdePvMA36/6qqcJnkkJ0U6NL+fTI1B/CRRmYcXrsvnFX9ROK2U+GS43rKZHKRyAy74nX4SnMKcblZyQrgA0qYFIcJTJ1Op4mAxrteF90OxSG2OQ27Cn9Z4mRGGel6ClT/Q6Z4Z3b7NjSPWN/HHI4t3/cpvK1aOi5UsfEZFh5lvziSg2UOGQXxH+GeuTyNQibH1Dpk47/IvH19/RCtbJOryDJv85GVnn9x8QrBSBSMatN/YBVd+9cTGYzpOMo+VG9dzzoX8Hfa5YKXOLG1ooRxDdpTmnfw6N5Jq5o+vvUnsn2kwpwhosANGrNo3pepMtzFrMRbeJxyOPH3gw051W25/ZP/QZXvvM158zrx7Cixj86ebBtTuhjKfveOdPle6RrL503W9H3xVMyp4gbq63jvfm3aDa0U/f2NzfaeJFae7jJvX0jJu6/GRzq4BMw4i1oB/YFlDl7w2purdnmNW+bRSymjo99TpB/O3Gp8f6fr7H58qPAYP+mzL0DlbI5HSUMhR/ay6+mcrD4y9zr2n+ZNNdzy8T6igojk73ux1RX4SvWvWiMmAZDz24skf/X7gb394sB/G/eKrs1eUR7bePfn5JombIEDYABNDZ3pPWzzwqSOTK0/ecMfGtm1Nicsm73yz11XuPGK/3jRi1kFojvRdq/aMv5bOR+yTzT974OUUiSXVZIZyE7eMm9vZeXvJMz8XUc61u3t2zyvNv51YsPPnHsGqrkxrrbi0xcobQRD7TXn40t+u3XI6BX2FGLlCc46kKpjAkBqpes15DJvy+KWfz1q+H7+Tgq6v7/74mu999dT2Q6YZAVZSd5AbPG3uFZ8/seEwQg0hgKiP6dHTbjAnQU1B85rSfSLKOJGAlEsuTzNmknv1Sc0WtE84Ekasanbv2Y/+B1k+EhXDl++ZXP1B1/tWkcvBYi/aM/r7f9w2YMb+O1bsubsiHImeuOfBPYx97ly5d8K1zm+2jZz6otQDzXjmaN8rvjjaY8IyIamHrtg/7rrIMZXOdPFjzxzrebl4Zj0mrPX5Bi7cNcp69faH9nA3ZDIDV78+vvrDwWNXaOnKw3Bfrjz75oAxy3O095AzbClz1vbTneo3D6p9WSNbyT+mRDh8qqymbj7QOfrMoBn7pD6pJWbJaxtFtVuP9izHwtcehF8ydfPhHsYbfcatFo09feuBHxlfOP8xYeJ6eA+56VsO3Bredsfjx1lzMWTR7knVH/aqWZca8OThyZVnbpu2PJM1hi44MOEa4zfPDpt9MENfWPO1w5a+NPHa6Ju3T18MXTL06QMTv/OnbaMefEUysvR81flrP2pmO+/76ze9HWPayjD63T/v0rOPbz4odRzehNYnwcCUIKbT3Bl0wrAHZpb8YvGuj6WyA4Iivkk2w1xqllU+t9cs+vb/zNtwJNd/3Pwrvpy/8RiUJQyO1or5b7prWhfnvaef/0gSyUAq1euhhVd9tXDnq/Frx8/t4ryzcvevpZaLJXuQJ1g6T/4DHJTSFKwgZVoqk5X4SXKU8vbCNSaFxyeHIroAho81HnnVB7lumLjzrYmVZ7qPWYO3wnAjlu+ZeF1k/0+Gr6usGLF8L76/3vHe1ZIrgG6cufNEL+NY37ErSXnBagxbc3jC9/649daaZysXvnKyt/NGr8lzIhH4Fthzd67eP+X68Bs9Jy+TIGDP3dld/R7ex9x7LNZv05uTsG6jlyM2nPLqh/2M4/3GrrAQJ2rcIZwvTEzZ/F1vto9sGTp3Z2MDfs+oFSPnns0OXHVwXNmpjjXrKiR/koZf0lxUNGrN4fFVHwwcPCdcUip1jNbMLW+1/58tw558MZmsff74bZWfbh3+xB5sANM8N2n1J9f9ofeETTATsVj/rScnV34woGaVlRww//Ckyne7T1jtHb54L3bX9qGPHiFWeC/YHcucuu1Yu+jWu2fsE6c1HA6P33ZsQuWHPcetSyijDc9d1EbqxprHO5unV+54P6uMgNAcA6Y8eumfZm49UYlfOo+d2fUyCe9zsT/DNzpx012LB/8goEFDNvbn44te/OWwKU9cVyXuNuxd3adz1x1picWKRz701OVfztv4RqzP6OXfgWy9gQ0M6SwrLxPfq+M9D7dLvr/s1dPKibf0HbP02//92NpDXm/HEQ/cEPhww7M/l3jrtkm17b6l9EPkt1Of2lU6asaCK7/EUHiXNm36j3yk83djnz265hCExHFuunfmtV/MXHS8rFxKFAUr6K1yofqw9W/t0ov8ckJtJ6nSIUtemnRdq4iv+Tdbhj62T/mbocv23F99pveEjRp/pa3a7e/0MY90q1mq9CNZ3aFLXp70vb9sHT7XWbx7wnf+uGXY43uVJRNnZdjiQ5OERFhh25DUkeYr/R/co/sD6nD44j2jK8/0uW+Z5b9z8d6aitPdapbkHNaIMvTFhBPT1r7TMbJ12Ly9OjVVExnNo4ntw8wnX1/y+bHbxqyQPENQ8gyTtx9rH9n6s9qDkvMST2XQkyQyMIeZzxzpGH126KwDvN2yp207+oN/7zFpjc9rDXlyz525FwbOfgXx1M+W7qkpf7fHpCXZqS+c6li3cXjt6z7y3SxIsoYv3D9e1NgqXX7huqauOgnRHzL3oBb5qKtn+nydRj7Szji19PlfClbMnXUeN6uL+cHCZz5I9a9Z/G/xN5fsPp3JdBz9SJ/SPzy1+c14Ij5s+qyKX6144Zd2oWaEdTsD759z1ZcLtxz1p24b/eTlX8h6j5g677Iv4EspQ6s1XjnHH7j13pntjHfX7FQ5Hv7grPKPV0KM0ukbJsztnHl72XO/sG4ZNb1/xZ+f2HAUIAyYPOvq2OmFO8semH/l2flbD9t2/Pphc7t+y7LOv7f8lQ8cI3fziNobGpZtPq7BE8BnPVmKy2S279iV3BLkQWkrqUkdvOTlKRWnek7YwhoP8hyMuQYsemm0uXvgzIMYRWp3luw90T68of/MF1vHCNPWf9i5fvOQOVmMU/luj5qNF+KpO1ccnVL1Xu/J85uaRm86crfz0uBZB+vqwpWVFWk1fPCl7lvhsWduPdkhvP62R15V3xnTc2NPWIqHN5xod27r8CdfdWNPyXPR240j9iwOWua0Hcd7wTWC0Ry7wjCHLnht/DWlxtc+Xxzrc//idKr22Teu/t3tNauF38I64RUe2HLgXz9tP25d1R3LX77Leanz+OekxoiBapeapSOWwqk603faYmKlBfXQkZVP7VKbfvGn+dPNgx7b5/WK/jt/TmPPG0fP7ph7a+ELHxcxf9sci/WaPLezceaJbWcGTp3xrc/W7HifWPV6eNGVX83f/rpt9a65/1ufrdtxxo09Kyrd2LP9fY90tz5Y/MJH6f7jFlx2ds66w87gSYuu/K+ZK14LaOxp5GPPn46a3tk5M2fjqWBw+LTasl8t3n1SYs+uo2s7OKdXbj51/aQnbq5fuu0Q67EGTJvRIXt68e7QxFnf/fviTUe8He59sGP23T+U3Rr6eOWuj+zrRky5pWnlljckbR+NsnatVT1W774DSXIo5+tQdw1b+vKEyvc7jVzm5pI0CUC+7s4Ve+5SOaAfl562Vkyb8kz0JXH9qDX7xv3Ln7aoSE3+/l+3DJ69x8jzctPXvtnLOdp9wlp/YMiiXXflXhwy+7DWAKUdZ8jKQzVtPhw8ZnkWcrBvfMWZ26au1H3APABiCgngZ29/u2P9pttnvmxIkhz6iTERrDCruGQtHcMzbMGr434chs90dil10koNoFg0Qh8FPtDUjXuv/j3cNYdxlqR1p69/59/+s8eYz5fuu8Pcdeecw1ovOng+5vPBgIdWZiZsPdousm3UrP3CZtH7FsJ92pp3OkY3DZx9SJNLxMrr8bKqTvOyRdCRydQNE+d1td5bs/09qRVjrq3v+Eeu+nLRqr03Tni8z1X+XKFWwnHOfzRn/QHLgl4p+3jllncSQkr99Gezel4Z0Hp8yff99eSS5z8yBtY8cfl/PbHxSKb/2PmXnX16+6lEIk5iiHkIp93dc7ua76/ck7zz/u72z+dve0+5QNiv9sa7q1/8uN+42qvbOEzGiwYxk2dPLHvlwwE1j1/+xfyNkXtmXNO0+rkDt903M/TpouecMbXXRyB/QitIrlbqHVR+aOWk9hzDRCJR9pZIpUQiPnL9YY341qiLp9RfNltfH62qqh629JWR5su3jt0h8YWo3ynPnepjHoMNz/euFN214sA4+FLdJ79Yeu/aAxMr3+k85qlUOhQqxZo9svNI3ys+P9pj0uJM5q7V+ydWvNtj/EbyxQ39njz1wE/Cx/qMWpxrbp564OPbnWO33bNEQg9yiUBZykVqd5zqGN408NGX1EaTkWP9Fo0jaxPgnz60/XDn8NbbZ1z17Mne8McHPiY9Kqz4hmdTXFKC9Z793Bs//KzbuDXFdD+llrx0zjMnrv7d1mjHu7K7hszdo6RO0+2IPdu+13vKKmvwwldH/+uftw945IDokoTwRkJFDFt4YMK//OfGEbMPSwI4Wl9fXVUl72VZ2p8DrITySMR/MmVBD/P08mc+NOHrYA9Y7UfW9gp+OmPVsdIeo2s7Zk4+velUKhQKiZ8r/JnUTw6Y8lD1J6s3vQ0dPOz+eT9oOr5y7XHEaKF29zwIv3vWuhMV99XOh+FbfSg3aOKSb/99zprXpYZbrXw+z3FzzdxbnVPvWV1vTRyd98KviVX7+2o72GfWPvNBn/vnXfbXRze8LrkH8SUaGhphN7LZvtOfuuIvrzdc16HlyVUHA4FB46YHfvu+t8uNjQvXH2lsaMQ8mddribf4NUaWFonOXXsrB4qYK8u8EkzgkMUvTax6v/Oo5UHlUskSUd7vXPnaKGP3sDlHpaZHib67V79Wc43z643Dag8J0zht66H+V5490m38Go0tH9x2qG/Fb7aNmLcLsUzt9rd6I5L/8ki3cYtx7x3Ljky+Lnys77hVUJCDl+2747tOcfjMbTWrvbgxPX3DqT5XIOAfvw6+bUoJJCnIMYY8BYUBN2t9UVGspQV7GC759//yXL8HX/ZqaxSc5UQ84fU9jDjfOjFk5NMtiEknXW/+Zvu9M/amSf8Ua/8Q1vuRHa//6PeD71mcIKnG2phHdr7eqSJm/GUPfCxJaUEXjnh6z7jy93pOXmGavhELof8Q8Q2etZ81ZEKZplOznz3S6/Iv3ug1ZYVpIMpricctLXGRGhLoVzX9gcCtdz10s/HO8l0fSZ1CvO+YRTdUn/9kweYjsh4wT33+6b9PLn/1LY37mLPDPAdNfeyqLxZsPV6UiPeYvuDq5jdXvfBLK53uPfWJa8rOvrPouV9COS248qvZqw4WjZg6958+f3zDUeob9tVozU9RS+97H78Sq//Vim0nWctgWbfcM6N95uTi5z/yDphce7Pnd7Ur95EQ12oR+H+pQffPuaY80/AfS9cdEh5kyNSHLoXO/mL5uoMuVnm/yKc9KWmx5Tfd0km5b6HayD3i+4gVeydXnu50z2qG9+SNDO0cGvD07vvMlwap4cPMSrR2x3h444k86wNffmXniftLSrVYJZ1MDt58Ip/dgW/xgjlyUiW2+5xwXXV1tfPQhsKNZ4/3/93Vh3/4Wdfx60q1jtFKDXrq6ORCmPC3Y32mLcvm4Okt3TdW2armT7fePXZbzx2n7v/un7YPrj3U0tJvw9EJhRuaP93R/6G95Gwqn35Fpdn9nH1z0OhliAdj8145dfW/9xm3xs/cvlebotIPbni3b9WvNw2fdcDb3Nwk/W7DFr5WU/52h3vXBIstUQCTn3u79z/nealfrRv48H6oId+QRS9OvK44/5AYttmMA16Y27TWx5YUF9ueDvfN6naFh6ysZcT/tnfmuo9LSrxa+ocVGlm76CfVjlbgZJN/e3vhMz8X/6nHqPUd4Kgl/vrmqrWhe1fe8i3lkCIf/iJ1/SW/X7jzA2vIxHmXfv7Y2iO5QRMW//Pfp8x/oU2bNpR1rYj0aRXeoLG1Pwz8btXq10R7Sf4j2GXkIz/V8DMHjXXvrG7fKTI1h+at+3TJqtfSUic4dNKCn9gfz9u8OxYrKSlN9Ruz6Eb7o8c2HtIqv4z2KgaKAox7mO8TXwqjFyrSJeelAQUjC7Y20Plinxq7KVjhla/vZj+X1HDRDyAxDMXLWAA6XF/P0PyAoVksqXGWeCGbYY6MxWKsJ0wkE9Jxls0E/FKQz0QYWRO2PbHriyQv+Z54QvwMU5k6lr95VIdDXQn3rQSdBnTksVLaLpJhDbSk01OponzvYU6raLSWK+eVGNaH7epoJYysRKzF0rpTQxseMWHmCXAbwisXq6Tw1Ji81jIkNTtrMqfmsLdR+06ZmzOlwEzIWK+LlVsXwGoF5gd9ogMcDS0N6QUCVqZb04GHaucP8wFpt5lCm3ULubmvYyUNZwEWwVqaGsJbauG1ixVAM4Wetf0B9hxI4jGPlVSjMFfND+Qpj5VXY9i0UJ2FngVmlKTGuaSYhQDYx7CXjPXEz9C8OlNj9F0knxWJVFRWSmeqjNDCeiapPY/HNX/J/LZ0YGopQYL17JpXsFgrzcRCQ6PUhmvqxeFzsQJwU+ob6vEObJmSvr+SUiku83gbGhpCZSHWWbs9u1oAFAmHy8rLmQhram7GOD63djTJWiXGWaWSP3d70EpDpZpYyEpHgM/LVWySOrCg6mbhrKXWHkFxKmnqiwhWfp/UDBWX5LRpLtYSC5WGNAljNjXBJ3OxguSVSN2mCFBU+TmygtqFFmBXj2JVXMCKj0h8A6viVlhVCFYCVgveJRTScaCPG9iLByFgPQWzvNDT0qutn9a94PBB8TtLApuamkKhMrzs17FqjrEGAW/wj7Hy+XAvZU4SMl269WF1W0FXMb9D9aM5XegP0g9+rRfIsK6S+U7sPC1uybJsl0yEZrjSbm+uljmTROU+k7ybVnqwDJqVR4bU63iJqeont4eO24tJUAxFvpj1CwFyaeqhF/YiaxbYf2KYFGLhf2FZoHLg33hVNCEr2hkmPTPsy2ahklc7ISHKbCjIadIOz5V+GKw0a1YD/nhLnMXm3jxWkKpgMI+VcNx5rKTixWafbVY7ouhU4RqPdjsx3eHTZgeTfWYXsHJYEWCZLloZN1do0EBzm7H+iX010rihG15rybVGWWNw6l22rluWi5Vpulix/QbjYMMrMSnFmHhHj5d95EHW3F7ASgzLN7HKsS/IvOa6m8vLy2nUGnQvcnIYHc/gGQHJPAtK+YVN1bxNhnV9LHsv5PP1sqy0CIrTKi3thXYDXF/Yi6wDlJpDy4bukXFy7GtrwZ5j/rWhXuq3GBwUujpdmkBdYDevHgp5pEFb9BPz/xDVcCR8ifbK8bn5WlBvLNbs19pL1uyy/I01nICJBtdxawPFUAGTqsoqsde5rPSplVd8HSutVYQcsA9HM9M+satpxapUsUrnsVLjDevQCqsMq3ux8dhL/n/CCndCGmKKlVJyUmuldkP6UoAVdTPLhNjXX/AdtWwpF62PhkpL6eFEVF9qTYFw/ZdcconufzPeCiusS0BrVwo9oppSlPoqmvivY1XfIDm+nr0HQMZFwNUYasWWRT9J+kykpcZmhzyezdrLpPaLsdwg348rxVwkiLXllBX+4jwxGiJDUxQswspplZxU3CKgUI1uM1tJ4l4tb4z+BxUyyznI7nDJ/cpFiapX38jR5iQsKusz2RhIC5LVQiXJXUgxUwqOCJ4LqWWTCcfxahjBPlhb51NQivQP2HCmfoZUhUOG+Lv29Nnqr0jEzmpaqXNS3qtQe+nVSizE2HGtD2P7EBseaSncbgjbQ43u0QrxoPQcX4QVG+Vkd2l2DX/yyykdLe75FHoXixApT5QDwRN6JZ8PFf+YDbGW1CBwu7IeK0f95LHpLpPcbtFqHxpiWReEESnxx6UYVT8uVobBXgRRop0697SsfD+allypfS0Xb9SWuECkRE9joJZWF1JKw7SPLEMaw6vlH1At8Cfg93CRtB6oyLb1vBEp0fJQNKVvrijI2lyMzxw4Y93CURCw9+UV5ZYelaHnDpQ5qleZM5dcfTrd0Ch1lWJ5bZv8jaWdinruQEhlQ85fgH9GWxyJRDEm68rJ03It8e7VVdVZrb6qj9bD/5N6QsuW3rTqKjKW8EWC+Zoq9jlSR4YjEcyB5VnwabQq163rcrHK5rHSjJ6usSw5xA7viDlIc6nE2lJHpVilAKOe9/L/wIpd+dB/8Au1jkMcbfg68I3oj3JNWS4nfYjl5aw5RgzLGF+wkvqFEDtgVW9VcHNG5b0kxmetjouVZTZoLX8Bq6D0/XncPj7BSgIa4aW4V1Q2U6w9Ut/CkF5YjY8YR3AhWYij17RoJse9nk6P9hFg3tLVJfWKORpB34UchZ4UwvNA6DOxybNwZoEUSGkfC2VIXBzt6HVjFu0zETKz0Ccj7QMS10D7a2rWL/VMWqvpVT43Lv1uImB0MuhiMz6Syl3ZZ4Zu3IBmfy31LYQGY10Gy7yk/y6V1uMuDPYIsA3a+w2s9MXzWKkOEHxa4jww4iKstAZSS/ky4udqjT+bolyoNNqI0//T/oJvYlUojGaOErfn+6Rdn5jXMH5XU2hqzbg0UTGu1xhfbBTPaZE2eVu0iApDHiuJDfNYaUcuo4qLsKL8QcvccFOH4mL4Q7l8r22QkSf2EAsEWPtLH1l1RlOl1naqmpX+YEJAf4txQTRaz1hMz5RK6PjSUBCuC2MP+TQMZumwm2HVTnbMQc8qkTpMbdLISmyifaoYmTFLTjsVoaXZn8+6R0LGPSdnnkhdInuDROlix8v5WKWlNlud2Mlou21b9HO17N9kflqPAkhi79IuQGfwbCGslvYNu3FiSvu7W2OFPWCpxWHzj2DV1CT9zdIfJ6KmPUXGRVg5RlRr+XnwRkJ79GQtHKMuHNYebh9rsomVWNgksHIzNqzDpPMU014a8dy9LlZc9YTSKzSy6gN59VHASnp7KJd6roucI8UevVL1t9hCx3YPF6t8jlzrLgOUAbwLfFn6GzmNnOBL3c7aS0gGY0KqUMo10xesOpJaJdPSeh3p9Yb2Yx2gFmrpuQlSJ2nyvACZkC4bYyUWK8IXcZSL0hojkRX3YC5LOpnou3AfkzvGe8Z5bgzPHtL58MgD7EXZ0LqRk+roUILdenByZtq8llV6SZt2uCrCbkj5m5MrDhYn5DwWRw/u8Wa0oUx9EY/WoEmM4LH1PCfT7T92a66lvNPLOID9uOzZcglMLUI3tddP+8RN5klZo02s0ik9k0nL0fRwBJvqmX0+CpVH+21YF+njgWBQVGQc2OfDGJZYscLHxUr6KRz1Td1gmc6uAp70SzTg5vJIIrKgT820zCGZuBgrzXFB10A/UZGLbGmZltdXwEo+Hp4TBl/Ko6XNvBPDS12zP8DaWapHbA68fKP0hJQ7eq6ZnkkXYjlfOCx9t9r46zC/ltJC+qT0gkpeD6KGe2Hvqa7x5thD5BhlbwX8Tj5+1r5nE+uBNy/XM0ZyeiaT1CSpg4A9hDFV6N0zNiDicubT+XNt2rTFW/KEDJFdXeOmxkbsY+E29SgE9oPjrqamJvI3HFM4GzV5FOukMulsxWSzsvQpBItYlFzoOWEXQEBlXXtUtPVATbBgVeGeoVCv42Mo6B7EoYKVnuFWwIqd7IgNc9rQrJxThbasAatYmfb3EatAgH3l7CMKsFkNn3Lp+ZbNrHUBFY42/0Yj0DclJGJcrDS0PHfufNu2bfT8Pjul9enECv7WJZe0Ff5WxZFnaWB1mhoVK9atR6Lkt1i26fa7XoyV2aNXf9lqykpLj3M2xzMCSFJTfk3mnKUfPKtqTHlk9f/JNNJncg++ybEQzyzEUJKHD8iZSXiKnBlHP0Z3M1+YdTYaQ6VZle3TWiIrz4OTZ9I6RqlYVz8si2vYa8/4jmdAsu5buvylxVncAnb3cm8wCaV8Rwm8aTII0q+iEyYXkNcxpvQNa4KP58DEldextGuPh/3xfAQezCe2hHtUe0Txvjwk0sUq1qLkuGQp5WC7rNvrR66Bz3L7trXnDFixRYI18gz0voYV+5gNjfUKZwh6W2GlvY1J0p5sQKXHTKwYsQrvpXVv9NA5MWKV0fcSrEqKMf/COQt8FmvhXaz07IYCVma7Dt2g05QX8DIuSGnQgT3Bnlf24rC/SggQZc9oZCNhiRHI3VHe2bYV1X5ZdgLCM2WfIKNc9wQ+8Y2iITlDzWBJCU/6MjVEsjVvgEWKSw9uGblp9UWEz5VkpnbE04WiDkipk4RYBnbdVtI1pjyQMAKWGVE9Ct2HGcaEay4Vu2NJPqCqSvVr1u2nk9iKB0yqDWX/j3A5Gn/BOsN/Sul6yDmlgpVwBy5Wwib72LfN/gKysi5W0n9XSSHTznebTesuVvDbLJtnBTKH43alSiDiYz8gS4+0GNztAaE/ms/lJeg/MZzSc29MUjAFrKJ63qnKqNXU1KxxMUy5y5npgXAW9SgbViFJchYXrjeFu0dMp33xck6fi5VafFMLIZVLk95J4aUK7LPWJMWZPMI7x+MJHiCUz6gY7Nko+LPsLUlpW7roKvUrGUUzocg6T+CubI1E47D9Pt1hFD7p0GDflQoKzyrJMkp2+/PjbH0uKS5O53WJ2qAshY8rlOeT9HAVMd+m38dzRUTLFnrlTLaEats0JizcuvYDMj/I8y3leFL9p6PHLkLn8ZxPW9Vqa6zccwp8fp4soodZ5LFyWmGl/qwEEzkxjrq6psayjnZNy+E+eHsPc2Swgyq+XuWvmU4uYJXWs6zS2tuIV2O/Glufi/Ln0GHi5EhVzpJBxYpJDtZeKr1l63MztDnsBddOdgk5mTAg7CSP5BqtSOOhD6YqAqY+Xaw0TxpQ/t3s2r0vj+0q2Ltsvs0IiyZnQhYFeFQGpA2yD/jSSuu5acictGDT7uo5SdJv73InOTkdwFb/KdbcLD0V6vI3NjQwdhOe6WLupEy5E5dnasWdQE9IP6VtNcdiMJ14bUdPkhCy2JDD+OBlYxye0YuVYBjMtHex5P9bcyf/fzwT4qaib/BMrTi5CzyTV3mmhPJM0pz4DZ5JsbJs5ZlKpJ0yk5a+b+Xk0srJVVSUm3lOTrBqxcl9g2ciJxfUvS96CHqC76tVSR6aF8ahVJyQM+oeMr2kBnLEKljMs3rOy7kx1SSf5dypoGJlWw31sl48ijIcDpfrucWsa3CxglB369mPp7oIyaaHHhWOU+I5NdwQ+QOc3D3NBIUcJqQSSieMDRFyFqMcfSYcuvrLNuQXayCxic24xssYjbkIzT76yFjlD/fx4x8pzWyY+QJzWkPiYuaZm6weWEXqpVC/5Wctgyow3ffyn86tSA4FSLt+XkYO39GSdg+8VDnATrg39RV4JIv4Ga3PRdZ4m3Pm2TVu+YZDrIQrof3iyWPs8S3SZDZzoNR87FPVHFwA12udFvQEfKCc9sLnsXLPjIDOS16ElRJRzFDlD0IyC7UhGolnmXUlVoaWOigjnaMlhYJQrDL6XOpgFyuFyj2DhcvKM4azyh3wILikcISO+qCSAbyAlYIFzfe/gQXBcr0RgqEAAAAASUVORK5CYII=;" vertex="1" parent="1">
          <mxGeometry x="840" y="160" width="198" height="40" as="geometry" />
        </mxCell>
        <mxCell id="54R5g4XFbIWa8T8a8VTI-99" value="" style="shape=image;imageAspect=0;aspect=fixed;verticalLabelPosition=bottom;verticalAlign=top;image=data:image/png,iVBORw0KGgoAAAANSUhEUgAAAggAAAEgCAYAAADR64ulAAAAAXNSR0IArs4c6QAAIABJREFUeF7svQe85EdxLlozZ8/mlXa1WuWEsiUjMiaZICSEJEQWCCwRBAYbHLCBH8bh2b5O1/a1n33vu/49+xmcCEqATTLB5GiiAgKhnFZ58548c+b9vqr6uqt75iwKi684p+derD3nzPyn++vqqq9CV3ee9eyzBp1uR+b7A+l0RObn56WDf+DVERnMi3TH8HNHfz+Yn7c/+Xv0d4OBdLpdkUH+/PxgIN2Of2Yw0Gfhvf2+fX5sbEz/i8/i1cXnRaTf60l3bEzfi7Hgz/oc/zt+p58dDPB1+nl8luPRsejYMK55/b5l48t0bPlvNj3OFc/Tf3e70u10ZX6+r//G7/jS3/t3cbz8O78PX6tTxXjx/IFhOT+fx2jz7Ui325G+zm8gY12b7xAWfYyp42MKYxkDVobPWLerONj32bP0h4StfRfG0O/3ZXx8vMDd1hVY2Pp3u2MJJ+CKMeK/thYDvNt+HtjvMZ1lY2P6Pr50/pSLjq0N5KZeL64H1xpjwFrw+zAgrL3KBdYH/6+bcbJ1GEtzVxlyMJJcqODl+XV0fef1f8uWLTMsHD9fmrzmOj/gYnLR7/d0fMB5MK8LrdjiATZfkWXLDAv8XXHoEgt9uz3HsYpjyPJne4R/w16Y7/f1w0nG5yH7JlOUJ5Uj31N5IXR1bQ/5/jG5yGuFz+H5Y8DC96KuE8bocmSqwPYTsMA8evjMWFfnmfaBYmHzxlouW+Zz1fFiDPZAyrnJhc0FsmnrgfGY3Otz+n3929jYMv0+/Ft3Nz7rezjva9cJ1BHhu/gezgHfk3WM6SrINMZja2zyRj2heBd6EfibnoFccC9knZB1JHUWvlvnDnkpsDAZ4x6x9TD9qHLh86Xcdse6us8VC9ereK6uZdTf/nngxhffx/2JOXGvcP7ExfZX2G+qv3s6fpM1+05dW8em17M9YmPv+9faPsY7Va7HlhnWOmbTIyZf9jzFBnOpZJNyY3bJPouxQgeozvY9YhiI7qOsh7KtMHk2fekKW8eJ33GdI5bE1J6FvWM6E/jjEcTXxmdriZdigX2n+6Gvz1b9GXSa6W/HkbbM5TZhofsRe6Sne8SGnccRx0rdabhgvQyXZMtcnyl21F1YY+r3SsY7zzz1zAGMYdAFQWHawBU8/6AZITNKKlgQbJ24viktdBqUfy6Cgkmo8en3TXG5hjbDahtfgcbmc4G3iff1Z2wOGnUqDzOCZuQpbNnwuVHTvzuhMcbiyscNtBpy+72NyUSG/46bK22wpKTxdgiGTaYmLFlBmWI3A4/F69qYYFCCsdHPc7EcHwqqYuFGBAZE12MwkLleT8aXjYdNYc/gd0dCROxJ5DCeHgRwbFn+vMuFQWGGhnJC5Yx1VSPm6xSNvpElyk4eRx4PlHEmOzSoNMqmuIBlVnA0VlAwgNrICgy2rT1l0+QiEy9THjT43DAmF7ZZzNipYQIWPduMJgtu7ImBr0s2TKYs8F7dwEoAzOAogUnE0Qwt14RKm3vFFKt9jsaJcoCxRSKcNJob7kgCqAywljS+MLA0zromrpCNPEGROxZKDEw2sbfx/b3enGKp+9LX1LWpTwGKn8QcWPT09yBL+L0afSeaJO7cH4kwBEOjsulGjQaSsqTY+T6O+5x/T0SW+soVH8aC95Dk0WGg48Jn0oExjEzauFcSMQpky9Ve0pNmGI1s00gZ2csOUZJNrrU7FGpq4WS5oTFSmrGgc5bkzg0liYr9PjtCmdS7s+fENmGrz6azZfqWxtecRjPwca04HtXN1N+usWk4kyH3defeA/YkS9SfXA88jw5Vkk18ng4kdDVkkvbCvxPrlQ20EVgXdJuLGRMnHMG5VQJi+1OdTScmyd75wurvnWjF/YqFwnfbnoyOdWkv7fvtGebkgByaLYMOx1qoDpqfl17PiGEm44FQ61rb+DFmxcKJOM2EyZXpU5KnuM/pVHPP0QmITnHGwvXis047exCVvhn9YGydlemXA0zbM9Lv+WK5ssGAlR2NmYFW5qIeuSvj4AFRIWawXNk7M4ahAljj4zBWNlBjifgvowO+qIpONj4uDYmsUBCpWOgBktAk4cGz3aCosLrHC4MTGSTmlLDg3HWurk7cQ8VzM5Om5+UM1IkQlZMpQfeOVaGaEJFEmSCZZ40FjJ69U5gQHSEWvlDkOZG0OCOFMVNj4g8xr8w8OHwHjQJ+xu/Hly1Tz1HZqRsPRhiM3JmhZLSH3roJtRmbSHKygjHFBFlR7zp4vLZxDQv1oLgpnUxB3vJ6uMcXPFDd8MFjo9qnR03Sp3P1qACVIv6m8+t0zaODgYEnMBhoJAZj4dzMqBpu/LwqELc0MXJQYwGcaDSoqLhp1fAFg0QvSb0GfH+nkxSkKo4QgcM4DGOPKrkipCJXRZFItRkm/KxYwMNzJ4B7hd67yiKiCD3z7oGFecc5SjDKk6XxsrmZTJn3SKPoUUafg46NnpBHZdyGUesn/QCjDEw0quF7JHqzWDxVwFCgKhJOKoNeMlk2gsjxQecx4hL1QPLeXcfhZ4uCEIsY4SHPdNeHkRofJw15jLiq0+UODCN03GMYjxIv1z/UyVTuZgCyzlFiEzx7lQvHOOo/3YOM5Kq+h/crKmcYOR0RI5Wus3yMQBRyRq8V3wf9TWNk+xeG0hgmDXEywE5uSNxo9GiU8V8jF/6cECVlxAtyZawOshCJkpFd6lvTFznyirGmfauG3Mg+ZVP3kDM+km8jTTkKxT3PtcTzoZvwbMVimTleFoXOejAZazrijHrRqwgA5F8ZITcscsSfEQzVQ66fjZzniCNIH3WI6qyK5DHiwPl0nn36Obpd8NBef84URuEh0SmmAcxhN3tbjD1ktpkMs5E3f4i9X0mDsyr9ruSth9APn1ykMDLLNcmzjZ7GQCaORXBFkfCt4semnHKqwgwvvKQUcE5GV0XB4mjmTbqWSlEVGvVkhP0pgQhkVh2hCCkYD9MpVMF7yYy2jAZY1MbYq2+JFIkhnlC9wNk2Np4LwMoQPclBbTDVs+DLcU4ehoepPP/jXmVOVVC4kuscDDQjEWnM/h1GkLrQAgKzS2WZB8HwHiNVKVbj07Xvj/NLomUDsnCgh/TS1IJckGyVJBQpNjMq6imY1Sz2CEP9lAd6/UmZ6NcbcSDhYYQsfX1ydUiWLDJn6akckbJx5zUsiC6xdNJMz4YRrSRLuuUY/Usb1JW2u1w5cBa2UJ3WAJljSIERRVOCrj+FQTUatDRvAyOkSagnzBhxf+P9Gk7X8L8ZPefJea96NImqKEa6UoQghd99g0WdxCgX9YkbF4c6DCZHk1JEkKFpeqGuE9U7DdG7iBOjIi6WupMZarc1su9hRIFajlikiJmnsEiCh/VA1mWcC/VtNHTpe9y4doWymkmiKSV3XtTMD+zHEB2Le8ocTV9GKjXdRCnIavo7yX0OmKYotUdSjOO7QGZtlwhLluvgcQdy6zGAFJ1OQ/DxpfUIds+lpNjnjGzHVBztXNqHFD63aUwrKUEpxmQ6JL/dHd4cg3ZsmcoluXQdkuL2houmgkguuK+cKPkXF/uYzmCy3iniZlHt5eMWie4869lnK34a4pib9hBTafdjuDOFdr0ugeHUtPAu9clwUVmYj5zyPlSqiV9QKxTMzFMXnrM3xZMJSRQMLhQ3bkpVuAeavVcPrzqY2YupDCd3rzP1FHD0r6d3jM8zshLHo/92wsL/ps3AHL17PYqFEybbc4F08Z9Ja+b8q73PFXTQBUyjcO9ZHtHUhxK0kBbJutjy6rk2xE1RlqAUtqKRMohyWJKs1sL1plyKMQYDxrHh8TZeerMmJ2G6rtuyZjH6ZSuiESZn8skwONVWTudzJfaRCGVvPM+V4zIlpd8wlGaz/VKurylE92A80mApDouAmTiwXiHbVSoJzoFyzGgEPxPxSHuAnihxdo2cIoBmHQtybt6V45dqZfJcqASVS9I0eq4377HgFlR1SzpFy7AkfmgejRFAKkxbY9/PIb1gnr3/3msUNN3hESh6SbouYc9EQkG5TEbc0yb0+mI6hM+jLBQeYjBeJHbqgTH1Fv7OLZs8OtalMP3qezVGITDOnE4Kjgnk1veAzcEJrufd8bkox0nz00DEX3iqlhuGNR8M1TOsT+NFr5ihaWKY1aHl7bnHM9bUL3kvWXqJDs+wHHIdkq1wT5eOCMfE9LTpVH+gpwiGsKAjpJs0UysbCOXNiU3wrC2146k99wi5IjSmFu0whWjk2z1z3+MF7OEH2h7+ivUY0bdVfeK6UEcasKCjYzrGHcVUI+Rk0iN+XFcjVJm85/UlR8tzYXSdkTe8F9Fl/K9z6mnPG3CTzM1NazhJw3QubKwx4Aa0jcKCxZyUpiEgAaZiS2E7KM9YhELq6RJk3pkRAir2GCEoCEd2sbnutBbBy0D4hDUHxRYqctoQCgsj2lwoBCQAeSNanjparqTUgxHhhjFxZHg7FnBayHgo55YeTE/YvyqxQff0EDqqwnRqUj18lflTzkPFIp4YRo9jxeShiBULhs58Q9Q1ErbRWG9hG5aRFyv2ysQueXBpM5mAmyK2aFIib0zTpPx4pkoqj05gkmw6sbD97EYuFG0hmpC9Svt7TBnlXHGuTaCkJE/fSWl+fijE83ma4ctGNxu4HOakq2Uy5Dn5VMzFQjSrR+G4svKlqiI5LMlcriPx7RAJQAjnxrnFZ2fybLJnjluMDHixV/CWbdWzkTe5IglyEsKHUcNRxn2fUbdY2sgUL2sWMCYLSyPc62nGpIhZGG2DZV0SyQ8xplJkuJ2hXcMhepul48HUUCbaMWLkeW7HR59tpidxMeoSRhAoO/xW4+qZ8pliNoPGlJ3uJy/uBHxMy5h8lF5lXivWerDeIY7VZJEGn89LYQBX8BqxCk6Y5bq90NjJpZKpmowwWuJ6T/UDU1opFVLKBQ1voVNDvU8mW3QJ3OUIdSg1FpHQaEoiFQEyum06WU17rC3yWpkUkg3zo4+kaXQtWLYVj05gdsCyPiRG0Ukxf4rePpm0G+3kxNl7Uk1GSM1Gghwjmbp3NGplDhNl32yDpWfoiGZnJcogMwe2t8aXjxtBePZzkGKw4p3e3EwKFxNAfmE2nDa54OMm45SDvm7kvdKYVtyeYV5W2hTlXskV7MHzZ8Wq5oXUAGUiqWBHRzrN2RgSvdOCIlQKlAJDzyw8wqt4Q2jYQ38ppFR5/PSy4vfpclOoHLsiGhJz5A4uhsjiFRW54LVwfFTQ2dDnVTHdzIepjk3edu2ep43ixst+ZmFgFiKThVyQEzc4sbPfuQp2D5D6mKSx9GrN8Fskwtl58A6Zr9TvdhLHDWbeqm2HXCFfFlUVka0Q30xRFfcWEq/2wTOtkBWOb7RACpLXEU5tsJiwJF82Jg0NB6VUGAzHLH6fPYOBHxq0fHrEcHUSxZMioQ5AcUnMWrMvHrrmbEeF+XMYmKTHSHJZIU8FhiHw71o17lElkriUjuP8GO3BJqZHyDkkXWCLUNQxJOaSiQl1SJJz0tSEBYtLh5ypYCRypAO/LB0iqtocCqfDYGNjAM+UuWLhUSSePElrHAhBjIJSkVNHmq6w57qadyxIQJ0kpudlY0Ud47svyVqK2hSni1isnbTzkPOTsPA9kdGg/iYJoLYzotN3Y5vD6hZBozwnMl07esEo530yjAW9bZV9YuVRLsWTGihEcVRW/CSaPTsQ3BjGJqGOBM7lwkiB4xW/L+jLARKk1CHh9FdyNL1olmOPkdQyCp9lrtAZHm3j3iExz3JjYwzbngNOTl2yPRWBs4ic6Znly5cbQTjtOc/XCEJ/vidzM9OpipuCyxAyGQg3LQlDCp8z5OsV+ZFdMYRBA0+DkSdShnFjGC5+T1IogVTETWHKiBsmGCl6gfToWRsQNXRgPMa0aXSyp0EjPYQFgXWBzZGwXEbr3NfIUTgCV0WBkldGllew3FD/kD4XwmhR8ZRhumEslN37Jsmfo8YDwAQkVKCnUyq5AIpYWDFfTmUwZJsiSvTYUnogeHBO/BQjepvp62NCwRW+p6qSJxNCh1SqRc4/HhFkpCHZXR7ddRIXC79o7IIynh+w4Cl7UfpdqXrcCodSGNEJZB1l0BXxzc5NyQ2aTtrEUzGu+OKeMYVbFuhSXjI5tIhfJpVZFmKNBLEvQuw5AFPkSmkO0j51QmdKOIdALTLhlfW0eGmtQw6DxCVFawCNeTRxftQptJ7J0FR7l/Jc71P72WueOAmPemjkIuiJFFVxqxYdgqScgxGJnneOHLpu9v3OEDYdrCzvlFpG3nLkCV8xCgs6Y9TT9CyzDsyfI9lioS/JHQtoTRaZFvL0YFJiwZuNWEQSX0UTMskNMu4Wy/S5R4uzikkeHx0bGnGNTjK1zLqMFL2qM2i5ODF517ZwqWjTiG4oFEzPz2Q7y5UfvUwusRlQrqNNKU4i2WIHNK8j51zsWZdB1uxEhy+apmz3hrHIMVaG9yjYTpWCU2LhQUUg1a9xDxd2vQOCsEJP3nSeddrzBlRmszOTbrvzjlu9dr3st36NTnj35IwMZnbK9om5VICzZsN+0pmZklnpyr5rVulcdu/eJbO9niwfXybTU7P62W53pYwvH8jsDH6GR7tSli8fyPT0TJLO8eUrZPVYR3ZMTetsl69aJWP9KeksWyPTU5MpLLRq7b6yellPtu2YKkLL3KQb9t9fZia2yaCzSqamdls5XzgLGhWPq0sLwzCknkJsOVaSPHIP8dsZWlPQ0TAnBR3WyyIB9MycKhTC5YsaUxypboAjzAQ/RTpSDs16ATDMT+NDssTeBgXZYI7Lz7UzRGbPLglbdGJJdKIS4IZSVcLKJFcakajY5vDjMykkmSMHWUHbtrPQOcPudtrCNkTelJkI2LlqLTyNx3xSDwT7DFMjibk7oTWZDM8uChGpPP17A6uLESPmbZPtCacPaKzi9q2NH7E3exnC3umEBI9qupdCwuYGdhgLnhzhMWSPbKf35/ROHFdchyxLrrKSUTRJyF4Ha2GysRvyjqgQQyF0wsBJv/3sfRpCKDcpQoZLPextNVFlioChVhpGkwsPk5vFdULH6EE+xppJk++BQD64LiEQ5RahQC9s2BwDyF5z3uuqwrWy3+1zEaYn+Sv7zuS9Fg1fJlIkE8nB8COhjHaxfoCpwExSadysvoBhad810S93G5HTejk8kOxiZhxFvNk0VIoYmnAlc0/PNss+0wEWCWP9G4+Dx4iGPqlI+XGP5KFkolGmW1IkNDwjPY8pUK9PIPkrgx85GpPdmZwiqEy2RalSH4gc5Vu+YT854fDDpTNzp9x0xy7ZuWvSZJspTIT+V6wQmZ+T2bl+sj9OBWTZqjWybH5apntdWb1imUxOTuWv1sL95XLYIYfJ1m33yYYD9pPNt9yi/Y/MIQ5HuRFB8BOEXoOANRpokWLOf9qWfO75b5DNX/+M9FevlWecfqas3nWt/NXffUCe+pyz5ISVfZl4wumy/MrPyIe/9AM57cnHyvhxT5Yv/eNfiOz7SDlkzQ65+oZVcuwxU3LjTRvklJ9eLY974tHyze/fKjNf3SnrHteTz33hO3Lqc8+UWz/xcbllxUb5rXe+Wv789/5vmep05MRnnimH7Pi4rDjkpfLxj10mRz/hKbLh7q/J/s9+qzz3gGvk1/70Y9LZdKic9qgT5MhH/Yxc88n3yh2rD5Onnni0TO64XcbmDpZ//fQlMtdjw6J8QoNsmspDt7JrNEtNeP6TIb+Ub7Vwa4ps0Oul8ktna134SSBSaCgzh+wpZq8mh+cZFi1POpiRC963px+8LCGmNpNwMAScw3zZs2MaBoqRWAQoLBTnBGcomuHeWPbsTNgZNbAcoOdDPcqSNmM4GWEpAq8DsAkm75rzjaw+6ZVk1HNKl9hEwx036FBxl6dB6A1wHJbXtpRKdL9J9jIWMbEWPL94KoVHtMLRKmc7nss1cmdjJha5EUoON5fh5TpUPSQXRf+ITB8jliSW5DyxfoRRfRodKk3iGY0MQ5zRO9ZqRc7Jj9CqodIjxRaeDsmO9O+YWrD6F8/V+sJHOaZHyEiiEX0qXXiLtoClU8AwbD4tEP+eSL4XN5optnVOni0DIO7VpsLfGErPolx8LsomTzuUnii/rUyzWIh8+ORI1AkFdhXRtH3q/KU6ahjrJdgLRA0HC0Gzr5TpeVi/RAtZrBuiCsnfYqTJPfiEsy9ojhoQ8bj5cn8J/Fb1tx+/HpJ7t952zp+OQUlM2GhIvyk0g1Id6NjoePzYa4FFUu2ZIBfNxzjsUK9nxJPOYVxfi2YMlo3Lox/3RFnT2yk7l62XdTP3yNcv/2FyWnX3Ll8tT37Kk2TF7Bb56n9+V2Z7PjetS+nK8Y95rBy6diD3zS2XDd1Z+erXvyU9rcMzW9YdWymPe/rT5YC1q2Tirlvla9+5UmbRTyfVjOV0G44u65449fRzNJiM3gPzPfPuIzN70ZveIp9/99/LM1/9ZnnJY/aTt73jd+XuHTNywOEnyatffrrs/5gnyV1f+ph88apb5XGnnCRj/Qm56j+/JZue+Cq58hP/XeToM+UZR4hMzBwkO7beIq/4+XPkhhtvl6/88Wdl5c8O5IofbpZnvuhc2X/X5fLP7/+yPO2Cd8otn/xLueKGCXnFhefJCevXy30Tfbnphm/L9Maj5ad23CWdZzxfntL9qrzyHRfLqrUb5OSTTpELX3+W/OXv/KncONORlzz/ubLt2s/IhiNeKB/+t7+X2bmShedN5Dks13imOG3xYhFeDs8OG2umT9Tw5J1gxrYqGNGf/bSQFaCUDapGpUfoSatvy26VfoTKPListCz/6U1uQoOeuBGpnHIulU1domdO78BkujZENBCMBpTGzrHzvgbJYwih3WLjqUfhxC01jGGkwGSRWNapqjx3KgEPCQaPMXnuJB2h6LBsbEUFlJ/FeYZIctVoy/DBGOuTIdkz5ib2TqGhn0gKRftxNXxf3RuiJn7JG05h2lomLS9g0YxI+nLRKg1KCit6L4SoNK34LuDKjLhHziybV5384WmEEJWxMHoMmWesLBWTCXeWK/vejIX9ZaRBUQWe87WZDEJu8v42L8kbV4UupwUWsegyLnpgaEZwXUsmh8IMmu1p/Ct7iFEuYo6XepZ5+lTTkP2UQg+V9RiZtJLs0bAxhZmseBLiGHjzMLv2rHF9n1IM7jz474s1DiQhRm3ogRZExeUnkswCC9e1KVceutTqXJ0jZJ2c1WtBgiqiQzlh+kQ/n8bthjnOw8m7RpgoRx7FSnVPBdHKdQi5ZsDJvYE/dOoppySyfqqjzjK+XB77+J+RlbNbZVt3vWyc36oEgV1XO8uWyxOf9iwZn9wqY2s3yOR9N8q3r7reOhMzFdjpyOOe9DTZtG5cvvDFL8vEFGoKc3QNz3jM054uh+yzRnZuvkm+dvlVMtvLXVUNOyMUy8eXW6M5EASAo0WKszjmyJiaAQGCcPmnPi3nvuh0mbzuh/I3//YJGexzmLzzjS+Wa2+4Uk54zmtl8vJPy8cvv1nOe+m5snzLN+TfPvEdOfwJr5JbfvBxefZTH6Uhjc9ffJcc/fj18soLz5YfXn+bfPPPvyjLnzov19x0l2y9/XYZrN2k7Olx5/6abP7s38rlN2yXZ531TDlybLlsOv4g+bM/+3/l/AvfLEc9Yq1snlovp6+/Ql75jotk3b4HyuN/9smyfOLbcs31s3LbZEfe8suvkVu/+u/S2ffJ8tGP/INMz8z5NnFl4kqLwmQClNmYhd2QlqBiympH/+VSH5krPZBYAFJ3AKSCoC+nn3Hho/Ij+eTzim92pkJvkx4nc7JsqFMaxVwpmyqXsybWImYqPSob/rk+ElgaTB6NY8fAfM4X78uV0G6YvHskzzsQc35nOs0Qc2Zh1RLWXKpQxGVYWQQiPS+05uY8IpZ8v6+wr2nGog7FDGORZpJJVKoWtja0jGNHZcB23SnfWChd+1Rq1lNhwXWKVeYmw9kK2HeZXLEjX5LNqg0vjVSZGskDyvlgSqX9t67vSPvIi7isDAEeHptm5crxmDNlu+4sV+FoFj3zkPIqO0wywlbuzSzDcR6mmC2iZSkra8Obl4lzWMggpt/T23XgzcNkTp2RQM+Fe+QC62UdYfl9PJoWTkcwwkbbz/oUFhuHQmaSHYYDEhmlVY1kbkh1uZHyqnZ8lt1qY3VbihpVkU/7itxynzKU061RHv2vjBayyLxqy453FXVnwfP3XIfNIsFb9iFJEbGgm+2fTuY4B8fFdC7/nqPBbH+veyikERkJo11giipiYfrbizZdRw0RaCea1P8pbeLba/UBB8kJhx0qg+k75bY7d8nWHbtTahrP3nf9fjK1c6v0Oitk9QqRXRNIQeTwFp6LRl0Izk3PzHo9lykHjKU7vlKOOvRwuWfLPbL/gRvlthtvlJ6nGAwr339IMaxYYXsFBAFhYGy+2ZmJrJKdmR12zMnyqBOPUGN587Xfk6uuvS2DNxB51Z/+tay4/FPy4bv7csrcZrnl7sNk4363yV3b95GDV22Vr373Gt2Q++7zFHn0o6blc1/4lnpba9c+SZ7z3ENkdop5ko7M7ZiVZ5z9BPmjd/6JTHa6cvpZ58jm//yKnHj6M+RzF31ItrrCfN4b3ylnbfqBvPmvPi9nPePJ+ajc3KTsllWyz7hZ9v03HCDvvehfUoqhUKTmAuXujCnUHDwyJw0x5GTGOXv+9IZtg1gIkIbfBJ+tlXPOjvs456VJyuw9hTFyekhhS0SCxDgUcnETKfNNNQb51Ak/WxALj0xgBLl1aFmDEG1YGkdg1awziGMrW1qb1tOwPbwW7eBVRg0Mi3yPhO4ZYhdOZFgkhQo/Hw8zjheO6RWpGNcvYd/HGgQqDG4kVZreYSxt8hAdcv88pQQY5VC5COmf1CjH+0IkQ425eZtbfX44lsPcbyY1Jhv0fpMhc2XI8WlqMIRDza7ms+D2Y/D4kwHKfdom1uGxAAAgAElEQVStFslelE08wjrJ5aNuPqAyPZDrcc0L8f2lxjPkwXXtYzM2tmHWBkihZ7yPl59V2XK3OI7NQr9mKhnRKoyNLnSWYHrajALYXDw6wQLrcO8CSScjhNHTd5uV6qAcOk9JMd8e5Jz1MNSyCQs+ydpeU04iYTfcvOCTVeoqO7n9sCUEiEUmRUwjFs8rvGIbECPHuu94z0aKVtq0Untg3pUTvk/TPWGdSp0VojwwVh5xIWbJOIfQB8P2uYg3IZxCKEmnpZol7pd81I1E1zo5eq1ROA1AfUheEHIoSR9TDmhIKdesbdEUbYEFe6WUKeEYBTNdr6uTTsFghkx/x1qgmgTZz8kzsGeEFuSxkDJFYdibxPvvqDMSSCU5Ef67YsUKk8PTznih9UEAQZgNRQ1hLYpNldiYTWTd/gfIsrkp2dXvyEH7rtNBb92yRaZne7Jq1XLZtWvCLiPqrpKVKweye/eEKpvu2GpZtWogkyh8dMO/fOVK2We8K1snMI6OdJeNy8EHbpLpqV1y35adaUTrNuwva5fNyh337EhKMSpm224dWbtuH9m9e6eHJj2UaRo2e4zp/oPAfEMlu2ITz666IUtpGF8jVW407jxZkI6bZKE1L99EiXcxxAt/eBQu5eRTDM41med0o71KlbWec1Zl5pedEJe4tcpCvZxOUU/Sw1VmQF0ph+OPPIliHpkpEhY6EVftfBfOIEeWm8/fVIVlbjRym+YYjivvuEibJRn8SGiCd+AXqaTIQiwodaNQhz31Z/rgKYKUWXiSs9DYRLePXzrDaHS8G4J9CpKCdsMdw8CMKCRD4MSNhFGVpXqRda2GK3Z/ZsqnVlEFNrFKWBQEytM4oRiKLWEpNxwf0xD0nozIeZgzRHEMJ2OxJM2JMJFIJwubpTNF2XzfFQ1k3EtLxWrJJXcDx5C/GmJ0zcyN2UgIoHtwnt3aSQ/fNRMJAddL29H63RCZDIcLraJ37/US5kyWtQ6JeGHcvqd0vb2XQqzHKBxY/8GwCPs1HskLWLDUIGPprepdhqi7GNmw9tSmF1MaxJeP9SIJi9COWlF3q5rSVbExU4goUZ9EeUoRoXTVioXoi3qM5AiVa2xq3OsFIvlNwPmK+z6gC6YGmjUH0ZalNsi5f0PGwhRNdujsoWzDHiNDiqB3/Iy1O7pLyzreZOCjcTdIc4Qp5Q9C5Ir7iKQuRkRIGkx9M8prvzWSXa5ZmRo1ycAeQWt5pBmUINiz+jI7E6sePeoeDBQZT+Ytwdb6BMq8uy0qH5E2l3tMZFOaS2fIK94cWJ0QIHjJQ3AlagV2RQmA32zoOXn3Vqm02ATJxsWqaR5zCznNJFVkge6hFt4zBdfnypuxQrczeig8Eqr/TZ6mbYi4eDQK9C5zSoLCY3vIiIF3WnMPyophiIVNgMahnCvXJlya5Ucw+fmcsojG3PtLWBw5KVmmCCiIXKuk4D3PTmOqvNk91kRiPC8ZG4QkD6FovGKfjZHAFBHwZ8ZTKxyLRgYoZ76GiqKvxbB3mzdZiurE8Cd92lA7ke428N/Z+fgQlXIjl7pHMlfLGo3K6OVuc/mI0xAZ9rXQFU1KiP6MrR0bEFFBW5FXvjcjepd5n5k3S2XMokI2SrO7IFyO+ODw33h8y7DPl/+ks+ze8hwyHvvEF0TBn0mDYpEGkjbbE/TgYvolkpmos0hckqEM960ksuvfqXLGi3YS56HxsTbmlCsS/xwPzEGW2MwqYeFHqXNkgPUZZSSBBDsWk6W5JU8hWNLiaBv1E5u25QJgn04iBngnewVk1ec4u1Kg58xlJvFitE/T1VjnYJyiaNR7LGLBiIPua0Yxwg3B3BrEO5mm2KQrDaywUqVxYMQoYhd0uhFQuw0x7wuvPUhHf3MDIupv6k3qLEYC+Iy6oy2jhbX+SXbRMczEJNRrBflUnT/CmTHrVtbn1BEmUxmMztlfIVvj494H4fTnvmiggPd7gmOO0UMa1UGvLsTLi2pgkpEwrJEUeVrE2Ho2zTIpNuZtEfswhugNcnxm/L68GDSCftFKOBdu3n8+IaBzC5vcPlls50Ih5uM0/hgPeWcPNkYl7FEcs+VX801h+k0hBGwR2Jw3T0ISW9DaA4vbHjMTD82XqkJCK/5ia1suOo28+8dVaImEI23m1BUvBmj5V8tXpYr+1EjElRHd6FQsF+TCrI0fpfIN6D/bx2IL0Px9ZNXmcbEoKHdsJDPm5iJhYNGNERLTW/aecu1HGl0KWWL11fh8eIaFX+qj8PrauAdZ1Iykjma+cd37pGI2D5FGuSR6GQ1ngJ4LNkUU58QTEaVZJDmKimMYixwtSV0NY9jXw+/JI0laOhvN1JwsefTMb2ZllTsC+qkXGrXQpTU7EKbG6pfzyZR64I2MdcSG654/H7xB1yu6p6toYcLbcc41REFrBMWcPDt6gEV/jnws2vRHvgHTdFruVmlC6k5AXQiaJkE8ghcT9Bmfx0JQkiHuo4imGSCeoDHyZUcR3SGh48DC1BBOr9dkiLS7e6vQ+l02WX9mAxx1VkrjhFYZ3Bd1JCKJRaHGy7ADU16MHpAE5tRFzr379tUliKllUwWBLIeohcnF8CtGBc0WucNBKx2Pk+NP/veMBdOPdA5ylLvcdmE107PDeKo+QKaCS1udnDQvCgdB0IsXSRAQ7p6dngxFXhhtLq6x/GSohCaS8chfyBUbUYgVnfkCEHpUJkzRO/Xily5yVPZ5FqZonUQobuH0LSSSi1FyEZiDWTd7Sayx/O4MUDaIVrRhhpxjtWnHKIPTDA/9p6YmYfEtbG2bzohCWdBnJCp7iGluQ1EZew9vrItec73o+Nk2mrUGpdwgU5ZDvVmsjUvluRR6yN9GxVvctcCxp4Y4VtyJ59GQ0yPQ9IR7ylZAx2JGVxRM7QSFyVy2pmP8+ClXiHn56P0qjomEmNKj18MaAWIdyUginr62NEkROxqkhHW6PS7LUnGyow4XsklQTG/oZi278On4/a4HHiWkjNi65rRXjiTNyxhPybBoztlwIk0kNEwJhMhGPLVAomuYkFOXKaHcWjmf/qA0xT4EXBslUf48htS5Vkaqqz0cozLpjLYTvEAi8VkqaMovDR7NeKx5SCHYpFOzMea+iJ46o2T0tu2/NRZ2nE7nw3sfnFzS2LnG8IJSSxPo2MMtmEluY3HdiNNQBbkNodNMcvLpDRobOnYlFm6wfKy8ThjrT/Kf6zlymJoE07DJ9xeg4DlFNB0LM5JWeGv6O3aKLFNbhofXFaWQeDw14vflUY5Z75DUWLaOCYukb70TKCOGSnrCMUinoHEfZM/fbBH3HaNUeR/agKJtVkeGaVP+299j2OaaBe43Gm2LONvxw1SLFFIMqs+qtsqM7pVpyyp6QFtLOa1ITyZ3nXSTsqYYGG6cnQ0EwYU0exHuIdATS1fjsnqT9zPytsMyL1zklUbyLftc4sWBOUfv0PLiuXOdLU04zuQrlcND0YBTsebUCD9PpR+JQrnsuiwh4sDn+vla3gsQQsTR6CaDG+sbinxdZnw1CayNDqMgvq8tLBQLVtiBz3Vf0T6W7WSxGfXIpe+umgInAsg0Y86n0uPhmkaFFQlfjPYknHMQxwvZuNvz/NXo4dZJZWf+b2fXRZ/9uqI+RAn4tLqpSmzZbDn9HGHiJh+KpgQynArlaLQq37YgmqNypDoPMzPJACfsaUa8oNDlIxuOpJqNWPNaw6Sc3MNxjyYqKSpec07NY7J6BpeemKLzTZi8zrAvR3lLRhyD/GbmygsAcyGfR8RYMJbJCCfBwhLffaw2Z2vbEGVi9CMRUSr54kZabA/HOjUri96s4ZH6d7iqr73FIJ3pn4lgkkWldGVOBSp9SYrZBljskUTmcm446ooYODEvNGtJk4tUBpA91DDYghyS7CnEZtjT3E0BmjwUe8K0UeEgVWCkiEDYC4WOSJFcJ3PB/c15fpPtVJiY9L9HUdUeUTOG0y5p09ahcqeCFYEq1ByjP7H4k95NSDmkr8h1j0YTE3mupSOO0/CMaaSkz4NzTOsK3ZDVd4g6MSpLvREZSSS7QZ2ayiwHmQLqKbrH6+ljdLWjbZZxH4NGEDD4+X5P+n10NQxhQK02x+97/rXluWIq/RTCq7x1U7Tc6BS0uERZSbJgLyl0hoF9RlQG6Xha9PSiQqrGnxe3PBpjCiALPpc4hS3jpAI3LH5tT8jHQ9jZjrs6RBpYf1Him6pz9Ou5b+wIlnV/TO9nuC+QfvO6sjCCOLEnfIxKMFzGEJfHMRKt4NgyEcnRFyogrnXcCpEA1CTB5hOML2smUjguKB3m5blheWSoOP6UDUZ6dhhMjMBQkbq75ko1B6ndPIetZMrJyKf3EQgEVWUvJdvzUQh6lXmuvhoxSsVQbSoAHBU6LjvhsZ+FKaF8aibWM6hhTXn48Plg7KjUU14t4ZV2pYOa52/7JUtI3sD2+9q4ZflLG91rS6Jyy1Ec9U7ZHyScpDCMXcrSvRXsFeJ+e1KoSDOhnsFrUXzPkzTproiGOCuhQpO7RkpykPZ+3NMBs7CsqfYm7uvi4bZxK78oBZ3dEEZ9akQtRyxcuqpCxERcChJEuXMCknD0G94Z9QgKmXgHU2Y6yFeB+jYVIfr6pAgdv8OfHSNKvHK90Anc94yUpv3knnzhzZoU2lytn0VMMdHm8/ll/w6X3fRZyhQJQ/6ZOo0FwDl9ntxUiz6mk2k2DkY/C2cyFT96/QijnaFYvLSF+TRW9g/C8dFkO6qIVTi1w72adFaKWjuND3ZRHYJ8CtfW2m3KGO5cCMILPrBcL2sal84ZZ71kYEV+OOaIVstZeQCAfm9Oi05wLKvu4jW0Iepf1K6wzci8wmLJy5/iY1JoLgkkvaRsUBWOdHcAP83NFoUtb6Bis6dZV4rTt0xMOoTsY+kFZsdwGBbudX9e8vYDySk1V1VxGZRU3CjcvLGyukBS7+z1ORmdDKTI12HUGlFJLBDhsOHkD2bS5N+eGG21zgW88UhirrYtcEjOJDuWmQpLy8JhpF+PnEy1HtlLJyHI0RcnB2H80UAmoc072qHwDyShyqYnPqqUa/v2REqiYR4tnI541d7YVXqMIOXvCdKwJ2hi7iQZk8BYs75MxbTDEGmoJ3OytL8jFsPmKKHAyEAixaGuLH6sMPZRrblEupwH6Sw0TdAOFkXh95EihmiAufsUOfuujkfe0hag7EWZT0c+a9BjlHRYMgp0Qvg86vm0ttEz1nEO666CwOs4QyqvyO8vpMnj+H28e5CjyIfojNDoDs0hjD8JzciVGmVU6JgVq2kLpeNbYNfVQqvvrWxPXPJQ4FBHzsKWGAKvIM0j8Sq+xNWZk6Go0xZaliwE/q+8DxKx878MS6BpUHVAx8bUCV02Ph7aX9voU6Ok0854kaYYjCBM5Kp0b2wDgoAowlxvJjWCMKUZFW3+KQFHzz95I5VZcatSvL/2/pMQ2TRjKCsLnm1yy//VIazAd2ozkZg5qZSH/jgz1lMw5JY8d4c8GVyrUcizyxojb4p6AUvFlodGwYlXKfv4+DBfXGLBlWCBC3BieiV6e6PktFSiZeizCIu60JqHxk2YCUccPyMzuq6pOIYPyEVPdai1WJ5wpj4XF7qkkAZHCO3L7BEhfJmLBXOojfogma3EafLpjOQpK5OtqawZ6OjZ42vzaZJQJV7VM1AyOFrbRrGqPITcAiBJ7j3qRR9fN3qVXsq6I5DMFJq2v6az6joANy7BvliOPXuTKXJRKyz/TIyw4HNFjcTIiF4owgtGocjTx+hjUINMkSTvbcS+GFaKOQJU2Xs/VVf/PT+BIdpEwj1qU7hcIzxvyldxhDHVaJV1TCPJDImLn92P31eY7aKGq4z+LhwGd6ISRLsyk6mgV6Ev9LBrnKAfaQ8K54UnsxKfr49zhkhVbBiX+Fg42eUepe2DESlsat9A7kw9m06wqMcIQhb+bvPMKoRiVdSbVB552g7FHo7a0KNCtWcRagBsarmIV+U6RQdZjB0UIpVIQXb4d0pGPlIZ9aEtY15pFFajEHHZ2DJf5kyYcZujdlI8/bkv1q9CiH9OaxACc8cxuv6c/q2nbZizVq75avw5O1ixiCUrQi6aEXRfRAdxiDBoAxh8gpf8RDUbIxJZCBQCX7SsQAmM/bfM5FXebL37ueYLbKjKcVyQlUSDXevakT9Xmo75Ouau6d7E76dAL8Rw8/rmyfB55fPZgrO2xPmoZyDYw/bZtuZo3ZG81BFEycln4YoWmzcXs+XNX0amwttDmqPe/a6AUrtM/1QiGFQWefMWk0mPszlEQ2J/GmGUbMC5FNl/TgY2kE7XbEHblFGlFGYtCEKt5kupGkkm/EGFbFbuXgr/JzIVFV+p6HXmsYgyJcGyhiidiBGKu94MgeDY0Ah+iAiqpr1fbrF9KMVbh3deuU8LTWySy7oIjmPE+IZqGCJxjVGwwohFF3oYF8pZXedCI5OOaA4ZnTK8PsrGFCHdoCqL9FrY8PaWqGVc6mNUxtdKHbjQDCilZWolVYcZ4lr7MkWClx3GsAedEHCdLFw9GsuCEBRKI3xZMDc5DZb3mY5nQYJQ2bZQCJ5qAyLJ98npPnWyYzMrTzHEyFCpUuwBNpwF5uxT0zXpooC9a9c6hwMD+KwRhGXSee7Z52qjpF5vTglCznFZERMIAjqp9eZmUqWuDaorK5aPS78/J2PLxmV6elpWrlxt6mowr7c0LhtfJr0eOn1Zkcb4sjHp6VFo/G5MB9XDrVQdkbGxjvR68zI2vkKkP6tF3HjDypUrZXZmWlasWC7TMz39TnxgTPoyMW2kJTNFM0naBQyXUHh8EOPoz6HdsrOzkFMe87/BHMZK6rJmgB8dJYg1a69PZlQKaJQODxsl2YihNEw+ZVB6lFSSZY1F9p7rcFbY/fyyYLS4J8lkCx1QGGpbn5gHtz/n3HMKMwaFmHSAb7whnRDsuFHp/IsEXREa9k3hGykrcMO9NkaZc5WUtrAX+p2UlRySS0onedc58JgjEyUxIOOmEknSEInCECnyscW5B6xr1lUbo5xyKmsGSMijnBdEpF4MJz5D5L+W4fCG5HGFYsK0DoXHRhpVelAM2rizWASEuKKslcnGwqJaVnBHhWo/MxKCPVNExapiQY6xXIpQe+LEYMi2V+AkhZ72gY86C57JZcjp2882gpL80/vN76f8FJGNiqDy+Yk4RG+aRw29yDyLYTVA3z21M5LkN3nreX7DjpKvLU+ahOLptF1HRJhs08bqy2TVCuwKLBIxKMn6SCyijmKNge93U4l1iresp6nzaETOTVaIdJcOELEeJqA5bVhEhuMR18pPqwKlDhlJWrYVOdqYKR1lFBEC2GYQAUadeVIQnRSVOIAg4JdII6CTIpUNJwPiIANEF5wg+Mp2ly2XAw47TFZO3iPrDj1Grr7qannM4x8v0puV+ZndcsUPbpT9N6yTe7bslAP2Xyf3btkthx24r2zpr5Xu9lvk4COOlsmp3bJ58z2yYu3+csrha+Ub379JVq7ZR9Yu78jW7TtlvwMOlO7crHTHx+Soow6Vq669Qx59zCEy2evI1LbN8sNb71VCsHbdOtm1yzstdjqy6eAjZdXsPXLXZFfWDaZk2caDZcsdmwV9XZLNcSE48NCD5Z7NdxqVGFHEkTdEDl8PG+iqOC0UX5UbKij+tJtiCI8bKhybqkKIWZmU0XRVizH673GM2iBavYa/2QlCjCowipDGzX9UAjoyNBa8ilTs5AMuvJ4QRlywFDgeJeXkQmwmOh9xP0fdYkP3zRfqGZJySgU/OZ5dePMFCNl9ZqEWlUnMYydCEMlJeE5h1CpDke7xSJrPY0SF1aLyKlN8jCaVYd76tA4t0ahURvC+Gd6mQY8yEByTSAZsX0WDWkdVyorsmgiXcp1rTpLyDYRjyEMa2ksaQozuuJu7GAMtVeeQvFdRLhLfgiDQboUtTLpqRsCNZ5zcSFc9f3uMbKpch6r6OMY6GlnqJBtFoK9luD14l5nY+m4hJ48LFLCgmakjkTSqbFCW7Ejwhvdk0JM0pyLGTApypCAjEOkMvztztawdSknKhIU6IE2z0P/BS0nyHo4wBCJtY6vknlFxbe4WTr6p4MaTcDEKk8eWSBv/kZzFnErIToET4RT1zs5NrO1IyAXHhMQA/0060WUVEQR14s84CxEEnLmcl7kZP+boHhLAA0FgiiF6Kt3uuJx08vGCAMC6Ncvl2pvulMM2bZDlK8ZldmZWdmy5U6b6XZmY7MnxRx8sk/1xWdXfIbfN7CPHrp+X5cvG5PZ7tsjmu7bKsUcdKpu3TMjGlQPZfPdWOWDjJrnr3rvl4IMPkrvuvlsOPGCTHHnkIXLlD26WE445UqGY3n6v/PDWu0JvBIpYRw4//AjZtGmdbL53Qo5eP5Cbt83KvKyUIw5YIzfcPSVHrh/ItvnVsmJ2p6zYZ73ccvNmecTRx8jMjjtl1ep9ZLo3J9dfe63M9kw6ag8t9qwfCs0GZTW0iRco+qu9hlHKqig40u+ICiAromzHY17L/+6ecXlSJKYM6jB2rur3YIzLUYza5G/kfDG82JNdZa5qgFQaYjbFokG3T9hP+Ry0/SqG0FgFXhfuRQRtfPRXCw+vWlurdyhTCgzLp7mFsx9lGmGUcbSTKLHb5VAqNCkBGjQymXDT3iiBSPozdntzj5MRkJRKMyUWzWOSzdBuNsq5cRLbU6kvQOJIw+mTOnLAtTN948dVQwV7TC2a8c0thIdJXiY62bYVJqKybvyR2PjAk3LkZ93cFWHxEXue+nBkfYWT+cC9iuJH7rnkG0TjU3nJDFUP1SiP8u6DsUxkJIeiqR9yGD2Yz5CLjkEjRjGSnIQLo0rvaUQYm30PIllzY1NEbmsy53JG8Yxh/Cwj9VxzeHVIClJkI3kExcmMrM+dPqU6qXh0MshFIHQluUdfm3wSoAjppxB/JvGZrub0tmk210/hlEFRmO86zzQo66QMD7vnJz/FxhD0cTgxFski0UQ/HZAARAq4T215cMxxTIsXO6ef+RK9rAk1BnOzUykMR8WoRYpegxCN1Jp995cV3TnZuHEfWbVuo1z9vavl8EMOk3Xr18r09m1y8533yL7r1kh3+VqZm56SNasGekHHfXMr5bB9xlBRIBOzszI1WC0bV3X0SuYVK8bl9ptukDXrN8o9994na/ZdLwds2Ed2bNsix51wjFx/21Y59sD9ZEY6snx+Wr579XUy1+vLPvvuIzt3WgRh1f5HyIErpmWqu5+s7E7IYNudMrPuUDl4/9UyMTknt995t2xcv1a275yWfVevlk2HHSi3b75Hxrqr5fADlsmtP7hJ5jZskuktd8jUXN+9bQNtlJLNAuewx9qwPSj2ZLW4njHkXH2uJCj1UdOyJiDvv0wg8Hk9mpOcT68HoaJYyJ0rNnOWPebIhjznYHBplGPYcaSay3orRXES1mFzUPYKLOoiwJjjS4QkHP5OuHrEx8OKQ2sRwxMMObmrlSMjmcDUyxyc7KEi6ViUWCircDUxw+Ux6uIH1EtL6ceURoUlS+Ia1y57zq4VKtyDQS8mkuW7mG8iDcMF4fa+2KKW/qcbcN9Te0ozmdhmxVgasRRf0AculJsNGaNyqaL7GBR1EZr3cHSMHPAho+Q5OOe0i+6906gVwpWjHHXEbAHdsZDTwd/H1EOR7guhfMNqqBQmjzPskzyMxHDKMMyedFxMM6V9nhVkJANJVkY4ZEOknqLoYYz86IpZRbKQNnmV0uL4gx6K4fs8vbwZopzVMrAnKjcU6aiIXV6XXDdBom5NrBwJXztGcXJELduCOppXRxY1Ta8phq7+t9IKMo4aBEQQznzeywdowYpaAxCEqIjxJagxQI901CBotX7FhFeuXCFHHn203HDdDXLcMcdKpzOQcZmTK665UQ46cKPcffd9tnnHxuTA/dbJ3fdud4U0JgcesEHu8r9rLrvbkXUHHC6dHXfKzuk5uyve2dgpjzxBbty8TY4/cD+ZljFZ3t8lV1x7azoqRpWzYdMm2XHvPYI2IOs27CcHH7BB7r3zLums2iAb13Tl7u0zsmmfcdk5NyarOzMyOduT6em+HLTfGtm6a1Imd+yUwfKV0puZsJRE0gbDVeFxbwzllbQ43G4tixW0hRKrlILlqbOCjkqvCNGnXK63eg5RJVXJtdfiolVEKoYqh4Nw6dn9zESzcswFgpkclK2RUy6VCjcUMcRLRphHT0rCmat55fy/ob4jGIASC195LzbMz8t56QLHtMlCpEDfUOYEGLlgqDgXDnF0mfnz+YXhoDcY0ilFqHSUhqYx0gfmC6pSbpoV9Prn7B37SKxux7vWqRykYkFXD0Puos8ldO6zzUoPyrd7+tkELVLlochBIGk6hqJYM5KqEcQhOtdV+sWeZW4691CKA4SmOtA/eJk+tQZI6k0Xlpsjy8aCXCE3CQokMkZBKlJDMKikTTZzw58yzxDTgmGyYa4LWG6dt12kFrznFPkIl0JFpeQequGWb5VkQ6RskBK6/ukyEpGNS+HbFidockTKBD5HE0ecLuN8XcfkfZFrxLglUyQkEQe/YCsRaspqldLJcQPTKMlD31NkwabP8ah8Fd0icw467oSaFKRW31Qrvk6UkZSeGYoYRZ1UE0rf8+EOklG6XmU/9BQZ3rF5rZliQL8Dn3mqhdEUA04xnHH2y7TgH5EC7YOQjBT6c3ctxdDv+SmGsvhBuz45ZgmkIuYzImSdhCKelghSHRRnAXwygqNPKyR25YqkzKUHmIK3bJs5nN0e8mazERjy5pIiJba8JWwo0EDsfyTzLrffwkWJaUNxrUg4h2oQ4uaJRydjBWTwaKKR5A6t/5wWpQSrjiYU91hweZO3WaYuCkWfPDZHI5GhKtUQGomYUcsyVNr68AdW1FNoS0tXqNakh8N82YCH5CZFlOrjnJ6qMEU8fNY+G+Hhgtb8/gQWrfRQTt3tZbJBgYuVc/yblTwAACAASURBVEk/sWC1LP5kfwwLMY34muQUlCJcKkb7KY9/AQJQFHjawNLpikB0SQb0r1VtUN5QyZ45sXadMmoOEZH0dx+zmYWUzvJdUxEhjjV8e+UzFHJoExjdv58Ll4SWmyy79nUt0KjIAcmafVOIEDLdwcdlmzAkF3XUpVRWXGEfX6Hbw54Lw08hs6A36ohYQeIjOQqbzowoV6LGPuvzOLWkkVLkgLrZxpr/nuUmikIZOQh1ZbFHh6/rSCiKLZtPyhgUwQaNjBwE/eZvZ7ozEYohMSmAD5N1hZhsXV72XDuCgwFWnKhEwPcZ3onUBQ4F6DHH55x17sA8u3m9VplTUc/XicP8fE96c7OlV+lvVBgVfF77G5S/SobnSKJxqDoOFpvB58yLonj9MCuX6dm57ORWkkmLuDA5i+Wy4M85zJ6PNSbzkYllkCRfVn1TXP1odIKI6pdVf4srQsUQJTHcSshlNI6UtZxFFkLWlmPlV3FoxI4KPQelKgVCj8oV2EiDmbVfzsMbCvZ2+1L7qjIPlvL4uf9gqAGIHhCelZV0gjnJVvRgXeulhbfvHRp6bVfT3vA/pL8zWeDZPQtghSryEQqw5Bo2cx90yvHp8+MJiCr7F8aXPh/rA5NLSpkrldyQhq9lqqo1KAgwv9BJV1T/xdQCKSvTarFywBbJ9eVoLAJX5jZIjnzhIPkuDXsWD6zr88p9gbX3jokpQuZXWIwEyX6ZVyMoTZe35JtQVBjKrXK/w3l7e0BK5RURu2xKiDGb0i80zKQP4zHwRP5L/RLD1ilKwmOOaaClcczqJxuY2EXVNWhiioUxXKBoOqm9YExHpb4YJY2R6KxD4nhcR0XSqPMxvZRrkwKKKeUQ5ZK9BGrHLSr8FJ5yOc4RJ1PpmVAXlGkUFjFiRpKoN/zmuempvlTQm5+Yg1xZ98cty3eqLSsiCcP2KBKslNasWhjgtB/SCOPjy3LUxAeBugTtsIgiRRxntAjChKv77KWjzTIiCKZoImPZwy70pxR5jwByUuzsjR4Kz4wpeyqjYkzON5JRKvMqBmpi2h521FvJ/BbFnGehgJXvH1n1may2K/4koKXq5NuGmH+IXnPZ6+UcQjIQgnjckrqfn0+cNJKvUSFIEgamDqKRTZfilM1/EvQ1wamj8UnblF58slPhyHlUNCWseQPWGz/xvnAsK1Wo14wihQQzosN5aQODvdFjESTDw4UcBZc6yaabmqxI3cIwcjB09j94eN5oinKSMaEmrJLDwasqPAr9fcEsMpt1Mjl8nNEUYRk891aywYPIS25YlVcL0yhbTVGgCRWjqopfU5zA92m4E4Tkt/DgYpfR0F42eWP4+1AflUwAuDfKPHxM9uUdS0Knc6FOYqQjsoGERYzuWRQoXzNdenUJayfCZFSMV5gNKSMNSSYKG5YZ1SiDnXBJPRqctEReHc/Th+lzG6X0oC9EaimsVipGlvhDaLKFsWpKNhjkam55nbMGM2c/phYqLJJRqwx6SvXE95MIxeJP/640/jpVXEbMko/nxl3XSefGUwwORaXMopdv6jtE0CrbZ9BXxi3aVqoAyoV/f07b+KcTeTJCk20fQ0jR4hTUJhEhZAmQYjCi6UIxGMj4+Lj1QUANAj6KVMLs9IT1EOBgsf6IHoAg0KuIsZpg2YZDYGVkNDHdwhu2W8N46xWvGM3qNpwDRu9xvwUxCloumGO41m9O9E3LvLvdDGnEoFCRNJ7hiFbyk4pzu7wcxxc/eI9DBj6EnNMShcgC8Y0KHGsQLxKyMJy6tEmYUhg/GfqQow83QjIHaj3vcxibFfVFfjAIJp/P+8drDyDpFPe2tQ9CEMwUKlaFkoBN8b3ss4fIDL4/7cqwcSJeYb7cVzrWUDldquWyiUSZJ68qj6M2Ths3FIIqwWR0LCvApIpSfpFY+P0Big2VdJ1b5WmJqKXpMbGan2ok33QI/OINcbGHPHOlZZoh5pL9eeG0AMkC70ZYyAHIemNY+ed0Sz6rT1KX+/PnepDoQer3QZb8orO0L31dTSzKVJNpNic6FfYpjOsR0XpfZq/KsVCdkul6kQ7SjZPK1IuKPsXa70IoXaZE2VPELMuJFTSlPUzl75alSBv6NqDcGk4xoof7AHL0yvShjSTfc2FzTPUayQBkPHWLuT62ivichixIiBMjC0O7nPsyUKdkAmGfVCwjtrw7InQRrLEg/jUWMX0y2kflKmQn0ZxQ/hwikQErpmiGaGMiWYyTFkHltPZDzoff0ggsTPaD7Hp0EssU73ZQ/emkKspVrmPw0xJ6DbqJQXHjZOWXGSfjPnW5KbAwrGgXNcXgPYnifOyYYxcE4TxFod/ryezM7vx1vgn76Gsw35dHP/qUvN+GlGrcihW1GhHytJC0G8D67fFROobwhspp4lujI0klYCCVD0ts3dMnFgzY0wCGTL8bu+C5pUEwURog5NsKlz9Q8UDqcqg8e2V5+G5g6uLBYniunKJddmVq3zi6OMe8Uhoyat9R87a/DYVok4tP783GmpZuD48koSiIhSUO8gAKz6UaV2ZfdI1zeXa5+HV8MT1odA42K1e+MXoINrlcaezvDoOLRWPlBIp0UZGPZyFV3VK8bLsd/YDgh3mzOCZac12NKQMbmn6WfMxHWxIr+jXht8X2KwtuF5KSvOWDsRiVBC48q9JL1REQOh/DgqIQolSpr0atkkaH37IjFwSWxKTInyw42SQheeO7MY6RmGSEwlx0TRzqGgp9atJ3cdUpbVyLPW2QYbGP48ipQNtzC9cxxBRnNMbUGzmlRklLS1cdLCiWxZ3WpEKcUBeKOxAbpstiADSqlyGUolykHVBs02E9U9iM0tFneiNHgaqPFwW6JXW0tc4DinvShsZUfYgtjN7sgSBzb4/axaPkIv8OjQ2vv/4GvYjRTjGUEXFEELRR0pnnvGKATond7kCmJ3c7+8AX2/0CIAh4yAcuu0jWr1//I7dJe0NDoCHQEGgINAQaAg9fBG644QZ529verg0GLcWACxstioT/ov4A0aHOmeecNwAZABGYmbbLmnLoyU43oEixEYSH72K3kTUEGgINgYZAQ+D+IkCCsBMEgZ0UQw3f+DhOMXSlc9bzX6G3OaIGYXpyV8oxIU+CfFYjCPcX8va+hkBDoCHQEGgIPPwRAEF4+9vfLjt27EidFOsaBD3miBSDHs+Z7ylBwCu+kY2SPnDZ+38sKYapqSlZtWrVwxLR2dlZvdXq/rxmZmYEF1z8pL7m5ua0cnVvvuwCr5V77ZEPBGMU82mozPNre20Q7UENgYZAQ+AnHAGNILz97bJTCQL0PuuFrKFWqkE46/mv1NscUbGLPgixghT/BkFADcIHR9Qg3HTTTXLVVVcpVD/90z8tj3jEI3KvhMFAZns9WU6jU//sAN9+++1y2GGH6U+7d+/W//GFgR544IFDS/H5z39eWytv3LhRnvjEJ440bFdccYXccsst+lm856CDDhq5pFu3bpVeD8c4RYnKunXr0vvuu+8+2X///dPPl1xyiRq8gw8+WB772McWxudu3BkRxjo5OanMDAQDJIiAx0FgkdasWaOYHXDAAcN9JkSU4V177bXy93//93LcccfJy1/+cjn88MOLucAYYq7vfve7ZdeuXfILv/ALcsQRR8jq1auL92GMwO7f/u3f5CUveYn87M/+rH4vXviefffddwij+nTKQvti1PvuuOMOOeSQQ/QjGOMPf/hDlZenPOUpac3j8z7xiU8oZs9+9rMTZpG0RIyx/t/4xjeUlFn1tag8nHjiifpvkDvU1pB8TkzYEV6+8JmamGIOWDe+sHajSBOeCznFMyAP9Xvq5/B5WA9WbuN3kAvenoaf8Tk8KxLNUc8CRj8uMgqiCCLGcd54443yzW9+U1772teOlM+F5KH9viHQEHj4IgDb89a3vk12796lOpd2n3WUcKw0ggCCgLJIRBBmpneFhg5WztnH1cv9voyKIHzlK1+Rpz71qfq+73znO2pMYZjw2rr5evneDbfK8Y9+qhy0zwr9+RtXXiePf/pzZP81VjWJVyQIt912W2H84t8i1FdeeaWccsopcu+998qXvvQlefGLXzy0Epdddpm89KUv1d/jPSAJtVLF5y+66KJ0jwMM78te9rLk9dYEAc+BUb3++uvVoD7ucY9L3zuKIMBowwDje4499tgUyuGH7rnnHjXiMF4gCmvXrh2ax1e/+lUlIzC2WEgYMBpBvhmeOr6LhgpGecuWLXLooYcWzwPBOfXUU3W+KDi9+uqrdT54jSIIIBt49qZNm36kpGOt8H3RAEaCgO/67ne/K094whOUoIDoHHnkkcVzQRDuuusuedGLXiRf/OIXda6nn3667Lfffvq+iDEM9J/92Z+pvNx55526ts95znPkMY95jL63Jgi/9mu/VvTxAJl75zvfWXz/ddddpwYbOOK/27dvl8fjhtLwwkb6+te/rkYU4wNGGG+MNN16661q/CEnP/VTP6WfhuEFIeH+wO8+9alPKWHC5/HCs0EGzzzzzPSNMM5YqxgJwdxPOOGEJM/4GdhhreILeJAA4vcg9Js3b07PAjE+6qijij2HuUFeseb43ksvvVTe+MY3qmzWhPNHCkV7Q0OgIfCwRMBqEN4mO3ftknEnCNHJsz4IY9I5+wXn622OvTlrlIRzkXjhfgY9d427GOZ7ctmlwykGEAREDb78la/I4Ycdpl46fp7Ycrtcc/ecHHbAPrLjjutk302HyuYdHXnsiYfJ1d/6vBzxyKfLuhXm9dUEIZ7FhuI76aSThgAmQcAfYPRg1OsXCAKUOxQsFCfeUxOE//iP/5DPfOYzcvLJJ6tB+Na3viW/8Ru/kbzemiB87GMfU8MDTxUG4IwzzkhfWxME/AGGC/ODMt9nn32GxojPwOjjeVDKUMK1VwuC8MhHPlL+/d//XT1iPPPXf/3Xi2dhfiBXGD/ww1xASJ70pCcV7wNWGMv3v/99NYIw2r/7u7+r76kJAsgLSQcMBYz/KG8aRARjh6FE9CUSoUgQQK5glPH3D3zgA2qU6vEhuoGxvfKVr1S8YIRBnhjFiRjj+971rnfp98KTx9hAJhYiCBdffLEcffTRSmBABDDW5z3veQU+//mf/6lkDFGl//2//7dGOp773OcW78H6IxLyF3/xFypXf/u3f6vkjUQAb4Z8Ys2ALyJrfEW5xe8uv/xyHcu5556rb4HB/td//ddEbPG7D33oQ4lAYL9hY2MN8VyQShp+jPd73/teQdB+8zd/MxFAvO+DH/qQHHfssfo9kCXshx/84AfF/vnsZz+rz4YMYf+BVMAJwPtjdO1hqfXaoBoCDYH7hQBrEOAsKhHwvi04oEAnCTq1c/YLfk4jCIgUzEz5MUcP2aqxQYqhh1MMowkClDMUJDwTKFwo4S133SrX33S77Jickv32XS/7rV8n923drgPvdMfkuBNOkvXrrO6gJgjMWyN0C28SirZ+3V+CAEUKwvLtb39bfuZnfmYoHw6CcPPNN8u2bdvUEEFhvvrVr94rBAHAg2DgmTAqMLB1PQPeg7/RAMIoR48P8yZBgDEBVni94hWvGEkQgAsMKzxzrB3mH1+RIGC+ICTnnXfeSIKAdQAZgTFB6gH/RWolRghgnIEdDBVkAKkikAm+JxIEGN33ve99KnyIJLzwhS+Uc845J6UHOE4ILuaA9Qd5gxcOpovXKIKAcQFXYHnWWWepgcerjiCAlCDqhNTTl7/8ZTnttNNGEgRgh6gSxgfig4hHfMFQguwguoA5gfTgPXHdSBAQIYgksiYIeA4wJsHFfCEDcX0jQcB7EWEAucL3kiBgn/ze7/2e7sG4Pn/8x39cEJTPfe5zGv1A5APEDlECRJSe8YxnpCmCIOD3+N8nP/lJjWZAThpBuF96t72pIfATgUCMIChB8FGz/hA6NUUQ7G8DmZrYoU2RrIGfdY9jo6RREQQoG3gbMCYwSDA6CFk+kFckCDA4+B+eBQVIb6l+Hozl8ccfr7/+yEc+ouHq+oUw9rOe9SwN40KpvuAFL9BIQXzB64ai/6M/+iP99Vvf+laNWFDx1hEEeLhIVeAFbw4eK191BAHKXPtZj40pPjCco0K0UNTsLwGDU4fz4cHBs0XaAAYAr5ogIHwNsoP/glAhJA+jURMERBiQU0YtA8PZCxEEzouFmjAQdcFfLOIcVUAYCULEHWsOg4b/sf6EfwfGIBLwqhGRQiTo93//9/XPNUFAzQUIKdML8TtqgvBXf/VXShb5giH++Z//+UIeQBaBNcgJ8AFRgQGtXxgHCAfk5MlPfnKSRb4P2CNFEiNWwOfpT396UQsD4srIA4w35BFEI6bMEFFhxIfPx/gg2/e3gPaB7EfI0Mc//nHde/gezB+eBIgT741/IM9r720INAQefgiUfRCWSb9vxYnWoNaugvYIwvnahgnEAAQhtsdEYaPVIIxOMSAECWXJF5TbAw1D1kYYxhTGCK9RhWT4PQwPQvx8HXPMMUMrAM8WBhcveEAwvCxmq98MsPCqnwOvNKYG+D68F7+PxhxEIzaSgqLFPKBkMdZYTBe/H4aDRZJ7KorDnGH0Ro2TzwPZwDjwQlRiVNEhxoJn1djBq9zbOWbgz/qBGnMQqA0bNow85QC5AnYwtPg3az0ixvg75gKcMfa63iKG0R9+29NGBHwgp/GFGoW9fZrkwcwfaRSQ0ge6nx/Md7XPNAQaAv+1CKQIwk4UKY753TRs5zxQ50NbLT/vhRfoKYa53qz0Zib8sENuhdzrzSh5uOyS9/1Yjjn+18LSvq0h0BBoCDQEGgJLG4FYg8CIQaz/g5OiBOGsF5yvLbhRazCjdzGU/ad5iuGySxtBWNoi1WbfEGgINAQaAosBgdgoCbc2pls4/aKnRBDOPOeV2moZlxZNT+7Um6bwsrsYBjI3N23HHEecYlgMQLU5NAQaAg2BhkBDYCkhYH0Q3qopXNYWsScLGyVpTcLZL7hAWy335+dkemJnul7Yrp5E6mFGaxAaQVhK4tPm2hBoCDQEGgKLFQHWIOBQQD7m6Pf6DgZaM6cE4XkvfJUShNm5GZmZ2lncJ47cA8gBuikupRqEH9U98IG0YKaAgZ0tVCT5YIRwbz8PYxh1UuHBjO3HNeeHMpZRn/1R67y3v69+3o/z+2NH1Pi9Pw65eSA4QcZirhN7Ym/uiwcylvbehsBSRSDWIHD/xSsWQBD0uudzXvTqAYjAAKcYJnc6Xrw0vuPXPS9MEHA0CycZUDGP43MLvdBdDkfLcPRuVGU0lAbOvKORDo4l1kf04nNx7AuV6ziSuDcq71H9j+OE7JqHZyMHM6qaHGfX0UAI5+Trzofoisc2tRh//PuoHgcPRThHnRCw1tj9H3kcbaHjh1ij2Onv/owPuGFuYKGPetSj9Cgmj7ou9D3357k/7vfg9AOIHo+07q3vw/xxQgMnABC+g2xhX8SW3fyu+uTL3hoDjgGj1wReOEaJtWE/B5wMYdtxyCpOK/B0DN6Ppl3xOCh+B7lC/wgca8a80G+iPvKI48Q4QhtfOOmDplfxBX3B00X4PU6fjMIG48IJD6zTqC6ofCZ0BY6n4ghzfZLlgeAJWcXYcDIGvTRGNTZ7IM9r720IPJwRiBEELUbUK5zzC/tbjzmCIOBoI25tJEGgl6GRhZkpP+Y4ukgRZ9axudBU5lWvetVQrwF+Jc5W49w3uruNukAHiuAv//IvNS/yJ3/yJ/I7v/M7I/HFeXEoIxihpz3taSO/D9+DdsQgEvWdCXwolCINKhQDmgjxO0cRBBhBzPN//s//qQ1+2B63Ji7osIfz/VDCkWDUBOE973mPKlo0o8FRSNw/UCslYAaFDsMLRQhj9vznP1+/siYIOB6KOeF/UPx4JpR9fPE+BCh7KGUoYJynp4KOBAH/xhgvuOAC/S4YnPPPP3/IMKATIPorQMDQVAc/k2jVBOFXf/VXFUP0j3jNa15jAlgJJggOWiCDeOAF+RpF1CAvX/jCF7STIV5oCVy/0IoZnTT5QgdK9C3AqyYIlHnIIDYPmn7Flsf4DIw95BPsGt87KgIAOSJJQy8PNOhiwU89vkgQQI4xVhA0YI81r7uI4ugm9pmmBPt9fS7WuPbA3//+92svA3THxAsdK7Hv8IoEAUQGa4v3oWskXmiUVPd+wNh++7d/W8k4GonhDgzgEL8XuGHfERP8F2P7X//rfxXTxvrHo51ovlUfhQWxAtnG3oUsY20hL7Xe+NrXvqadIC+88EL567/+a/1v7XzwEjJ2q8Rg0IEz7jW853/8j/+hPVjQnh3kBO9vfR9GquD2y0WAgNYgvO1tsttTDJwS9TH2mhKH57/ktdYHoT8nkxM7tDmSdktAoaIq0lmZn184ggBlBM8BigsGoPY++MUw6mgjzN7/Ncb3hyBgA6NBDQwSGjShMx6UX60g0ZEOrYnRIhaefm2E8N0ACB3z4DGgWRCUAe84qAkCFDeUJJQRmt2gC9+o1zXXXKPKbBS5qQkCFCA8SxgDfDcaBtWNbxCpYKthGBMYBOIbCQKUMfsfwHBAqUJR1oQD3i3mAcMAUgCjCINJpRoJAjo4QrlD6YJ8gCz8wz/8w1DEBoQABAvPw7PR/5+Rk5ogfPSjH1UljBciTjBE9W2PGAOaUPEFA/LMZz5zCG54syQR+GPdPAq/Q7MiNpfCz5AHRkhqgoAGTfBCYSiABwxi/cJ6YG1BHND9EBjV8oxuiWyxjIZQ6K2BtcW6YP4ghexPEQnCP/3TPylpgQGHlw4y8IY3vKEYAgwn+oZg82JtgSXwqQ0n9iT2Gwwx1nhPBAGkB6QSxhgGF/JWy/ff/d3f6dh/8Rd/Udfrn//5nwVdGvHdfGHN0KQL3wmDj+dCxkGm+cL3oLEZ5sAX1qMmYmhyhp4q2A94L/pg4Hl1VBFG/A/+4A9032LPY63hpMQXyADmA1KMvY61BRmPTaxAptCTA3hCJvFf6If6Ho5FYBfaFBoCikDdB6GGhc5b55wXv0ZrEOZmp/U2RzWmmnSwjkr93oze5njpxe8d2QcBygibGUoKSm2U8cTv4VmjQ9xCaQi8Bx4fLobBzYXveMc7Ri4lNjkMInrPQ0HBq61fUGhQoFDQUECINrADIt8LRQhPFQrvD//wDwvjXBOEN73pTfosKDL05l+IBEH5ATPcBwBliO8lOYkEAc9H50NEQPYUQYDhhXcHg39/IghYVCho3hcx6sY/jANeIgw6/geSRYIVCQIMy5//+Z+rx4iGUPCM4V3V3jxwwXdirCAEeD/fUxOEX/mVX1Fyghf+jfnX5A3fi/swflQEAcYAHTBBTPEaFUH40z/9UyWTfO0pgoDPwxAh8gMDNYpw4DnAFiQVWHzwgx8c6uKJSAvGDhkBgYCMwjvHc2Hs4FVzzpEgvPe971UCDZIJgwcjBSzjCzKL5l1cZ0SUsDb1moAcIDKEZ6CtNLqOkvzWEQTgDeIHWUBEBsbz9a9/ffG9INIgD7/0S7+kxAkNwYB9TA3grgs2r8I8eJEVLsmKL3xfvMGSBVLxPdgbiL5gD4M0gRiBVNX7DusLGQLxg3ziM7FtNJ4JXYIoWEyjgMBGuUPaEHsV5A4kkG3Z686rzbY0BBYLAuUxR48WdDpqw7E32LRPCYKG2ntzMju9G9UICQNc1jQ3h1MMc7JQHwQwd3wZvGAYT17vG4GEkobSAkGobyLk+6BcPvzhD+smhdcFRRU9FL4PXglCnFB+CLej1W79gncNjwCGCwQG0YZacSBvCTBggNHbPvbSrwkCjBHIC0LjmOOo0COUP9r0QpFBGQEXtAjmeyNBwHfCuMAIwShDSWIMdQQBShlGBIZrTxEEzB9zwf9AJvA8fG/tnWOdgQ0UMIwWyBa8W9ZxRIIA7DAnEDrMH8+ub1/E90K5QpHDa4YiRwRhoRqEGEHAZ6M3zTUE0YBR42uhCALWNb4eagQBY4fhgEGCgWcr71q2IKeQd/yd94bE98CYAjMYcmAIzEAKRrUgfyg1CMAJxA7Eo44gxFtW6/FHggBZQKQNkR++kNpA1C2+MBdEWHBZGZQHWlTHm0zxXpBjEAfgCC8dnwEZfN3rXlc86/7UIABjyADIJ0gQZHSUN490H/YMnAoQFkRBIFPxBRkHYWG7bvwNd3vUtScgc9g7mCfSS/UdHIvFMLR5NASAQI4g7CzsGQuIWYPXecFLLxz0e33tgzCxO7d91fyDdGR2dlI9g8suGR1BWIxwgyBA8TzYHCS9Xxh9PqNuKf1QcYPxAQnam6+Frtd+sN8BAzGK5D3Y5+3Nz4HwgMjtjSLXBzuuUVdsP9hn3d/P7e1i2fv7vXwfyGasQYBDsVA77gf67Pb+hkBD4P4hwD4IcLR5vX2MqvEeIa9B6OiVztOTO+wIUipDQMgBdwWgBmHpEIT7B3F7V0OgIdAQaAg0BH7yEIgEAWSgPhadbnNEkWK309VixOmpHSk3h9udrFp6RuZ7Pbnk4ve0uxh+8uSgjbgh0BBoCDQEGgIFArEGIUbKSRRSH4QXvPR1qQZhatKORVmoQcsUrUixNyeXtghCE7GGQEOgIdAQaAj8xCMQaxB4pBHkgASBKfbO819y4QBVxahBmJrYru2V7V5o3OgoMjc7pbc5XtoiCD/xQtEm0BBoCDQEGgINgbpIsU4xIKqgnRRfeO7PDwaDea0zQA1C6qfkvRDssiYcc3z4pBhQYPZgCwj3hmigaBME6v9Ui1gsJkjdqIZTe2N+9+cZWINRR9Tuz2fv73tQVT7qqOb9/fyo9/04nvlQxtM+2xBoCDQE/qsR2NNdDLBtiSAggoCbG2dmpqQ3O5HGSUaBIsX7QxDwnk53mUYier2+pSq6XRnzrm94HmodOmM4HfHQXnX1txGceUHMo7NsXDoDO2utqZIOxvBQv7EcL45OwTjGY4m48XLe+0eML1umvSO83lPw8958wTjjiF1s5QwMUDeCL+06Bn2/qbauQwAAIABJREFU/wHjGBvD7Zx774XqVxwViyQJ48I6j+p8GL8ZHS7RdQ8YgmyhvTY7HMb3xSN5+L5Pf/rTetYd595xTJT/jp/BMViOCdXxaDuM3hwcU32yAicZcLQNc8EY/k+Rvr23Mu1JDYGGQENgzwjsqdUydbg2S0IEAfUGvd6sXvfMRoq8uKE3N+2NkhaOIMzs3ipf+urn5MgTniZHH7RGPvKxj8p8d7UcdNBGOeiQR8h9994pa1aOyeydk3LYaU+RTQ9x9WqCMHHXD+RdH79CNna2y/GnvVYOmLtZJqZ6sm55X75w/Yy87IwnyPK9aB9HEYT77rxF7tsxJbfccYec8axnyuYbrpKrb7hPuuv2kdOe8oSHOOPy46MIwszuHXLT7XfK7LZbZP6YM+SY5ffKrZs3y/jK5XLPLSvkaaces1fHMIogoAshei+g496eohtoPIXOeDi/jn4GuMsDPTDqVyQIOJ6H9+L56H+BZljogYEmOPHF+zywRmgIhfPzIAE4copXTRBAOiBP6Anw6Ec/eqih1l4FrT2sIdAQaAg8DBCoIwj1kOD8aqsDEATWIEzs2lq8DyQBHRatSHE0QejPTcvV194ip5x8gtzyw8tlsP5Imdy1VU54xFFy3fXXyIknnCx33PR9+foVt8rTnvhYWXPIAbLmAQCEuxfQfCW2bK0JwtXf+ap8/4bN3gd+tZx40qHyg6uvk4M3rpO5w58spx6//gF8Y/lWGA40eUJ3NXZyqwnCzm33qhc6OdPXuo2jjjtZ7rv1GpmYsUjKSY97upxy3CEPegxobAQjxyYwowjC7ddfJV/77jXSm7hXTjrrTXLK/vPyza99Uk5+4tPku1+65yERBPRwwBjQbIp9DWqCgK6JuEMDjXbQhhjNk0ACYIDRlCleAgWCgOjH2WefrY2i0MUQBAENtfAzGlKh2U4kCAQPEQK84PGPapIFgoDfI8IC2cF3Q34WIgh4FvBE+2A08eKdBA96sdoHGwINgYbAwxwBHnOEbhzlzKU+CCAIIAKIIKBIES9EEaQzkK7g+CMiCHML1iD05mbk+uuulZm5ef3s+k0Hy+zuLdKf78quqd3yhMc8Tu669mr5zHeukvnJrpxz4cvkgZhrtJeFoUB3Rb5qgjC95U65b9WBMrbjDjn44MOkt+suuWL7WnnMpnm5fXK5HLHfyoe0XLiDAUaH+fBREYSvfOoSuW3rvIyt2yTnnv1s+cbn/lVuvHtaxtbtL+eePfruhvs7KJAU4EAjN0QQBvNy2y03ytYdEzK7c4tMrz1ETjh0Hxlbs0k2rpmWL3/2oREEjBMYoBc+Q/A1QQCJQttjdAfE+9hyG5/D2sV0DAgCwvl4Bvr3/83f/I1GB2DU0VIanS/xPZEgYP5o5IQugehyBzKBOwZwW2F8gSCgURUEHMKPVrw/iiCgFz9IMsZcd5+8v2vU3tcQaAg0BH5SEBgVQWDWALowHXN88cvfqMccp6cnZXZ6lypmu5GtK/PI5fdnpTc3+6CKFLdsuVc2btwkO+64ST71FeuJ//SzzpUDH0gIYQTiNUGY232ffOSTn5f+/EBOfPLpctL+HfnIv39G5np9OfpRT5fHHX/gXl23UQTh+9/8rFx98xaRdQfKuc99uvzg25+X7914b/p5bw5gVARh4efPyG03T8jhR+23N4egxp01CJAXFP+x4QbqChiiGvWluIcB9QFozwzihbA/PPj6FQkC0hC4KAltfkEQ/vEf/1FTA7ggLL7QOhgX7oCoIHqBy5TAkNGuF69R3R1BUJBeaNGDvSoi7WENgYbAwxSBhYoUYx+ElGLQCMLcrExNIoLAgr7cBwHRhYfTKQZ4k3Uv9f/KdYAxBHg/qhjvxzUmGGCkHNBj/v/UC+2o4W0DB6QgYMzjC22gDz300JHDQ0Qkvh/vHdWSObaTxnxxkQ7mDGOPSAPSFPXdHyAu6PcPUoDvB7FAaoiRD6Q96muw0f4X8oS7BNqrIdAQaAgsdgRqgqCHCDw4gLnDtukpNUQQrPq9L5MT21KRotED3F43db9OMSx2QNv8GgINgYZAQ6AhsBgQGFWDAMeT9QiIBmsEwVIMojc2RoKAFANON2iRYn9OLrnoX5qHtRgko82hIdAQaAg0BJY0AqMiCACEFzalIkUQBMFphbkZmdq9TWsP8gvXQNtlTY0gLGl5apNvCDQEGgINgUWCAO9iQK0WWy2DHLAJIIoULcVw3i/4ZU0zMhmuex6g6RBaLc+hUdKcvOef31U05lkkOLVpNAQaAg2BhkBDYEkhcPPNN8tv/dZvyc6dO1NxebzuOdUgvOhlb9RjjrhvYXL3Vj3Hj0KE2CgJEYQPfeD9Q8VdSwrRNtmGQEOgIdAQaAgsAgSuu+46wWkyFHUjnYCjjXWRot7F8OLzflE5AaIEdaMkhBB6szNag/DBy97XCMIiEIw2hYZAQ6Ah0BBY2giAIOCIOCIIiBbweKO1OAh3Mbz0lW9WgoBiRBQpdvRGA1z7aAD25xpBWNqi1GbfEGgINAQaAosJgUgQWIOggYL5eSULOMLuNQgWQUA7ZSMIOLugeQb9v+iUiL+1CMJiEo82l4ZAQ6Ah0BBYqgiQICDFwKONsRdCus3xJee9aYBbCHED4m60SMY1vrh9EFc4DXiKYbYRhKUqSW3eDYGGQEOgIbCoEKgJAmsQWHuYihSZYkCUYAJFiiALCoWlGvQ2xxZBWFTC0SbTEGgINAQaAksXgTrFQCRYqAiCoNc9v+z8X9ZOilqDsHtrcbMTIgvogwCC8IFL39uKFJeuPLWZNwQaAg2BhsAiQQAE4S1veYveZwMiYDc64zSjXbqYLmt6ySusSDGeYmCYodNBq+Vp/VsjCItEMto0GgINgYZAQ2BJIxBTDLynBoDECIK1Wj7vTX5eYV4mdm2RedzL0LGWi/h/szOTMj8PgtCOOS5piWqTbwg0BBoCDYFFgUBMMaAgEa9YpMiLCDsvPu/NA0QK0OsArZZRd4D/j9/hqOOc1iDsuUjxrluul7u3bpfDDj1Ebrrpbjn0EUfIrs3XS3/1QXLgqr5ce++k/PQJh8j73v0vcsYFF8q3P/0B6ez3SDly3W757tU3ytln/Kz81f/3UXn5y18gpzxivVz2r1+Tl7/8TPn6x94jncdfIEdOXCPv+Y8vyq++6mXy4Xf9P3LUqRfIFd/8rJz02KfJsnuulJu3rpWzn3mkXPzRb8mpLzxXjtiwYlEsYptEQ6Ah0BBoCDQE9jYCdQ0CuyiyD0IoUvzlQbeLSAH6IGyVrt/FMD9ALgLXQE/pXQwfXKgGoTcl777oMpmdnJK+TMlYryuHHraf/Mfl98gjDlor62fvkq3bV8jzf/3tcmTvNvnQ53bJS8/5Kfns+y6WJ5z3clkxt01uvP5eOe74o+Sq739fdvzwVll7xPFyynHjcuU1V0r/2BfLmq1XyI3Xf0MOOfYpcmL3Vvny5n3liEc+VubuuUq+9JnvyKmnPl2WT3xFdq4/Xa696R55xVlP3Nt4tuc1BBoCDYGGQENgUSAQCQJSCZpOqGoQ9HcvecUvDXAOEv0OkGLQ0IHew9DRkMPcLAjCHiIIg75c/p3LZWzFSlm1rC9bdg3kmKM2yre/fZ0c91PHydSdN8jM6oPl5OMPlO9ddZWMrTte1nW3yi233icnn/wIuWPzLbJhwyGybedWWb5ihUzsnpB7N98nj3zUiXLrjVfIvfucLI+Q7XLlNd+WRz/2abLr1iulv/5EjXJs3LBOtt15jXTWHSKPOnK1fOOabbJ+07Hy2JMOXBSL2CbREGgINAQaAg2BvY3AQhEEfs/y5cuNNJz7c78yGCBaMOjL7p1bUstFvBGMYmZmSk8y7KlREogEqh9BNHAblBY9DAaC3AXuhuwPBjLW7erf8B6tlNQaB+vcFD+XCySNqBhVweNQZZmfO+j3pYMJyEDmB1Zcgfskut2xvY1le15DoCHQEGgINAQWDQLxLgaeYmB6gREFkAQlCDDKiBJM7LxPDbe9EQmGjszOgiDMtlMMi0Y02kQaAg2BhkBDYCkjUJ9iYA0CHfTUSfHlF7zF7mLQFMN9SgrgmWskoGMEYb43J5dd+p7WB2EpS1Sbe0OgIdAQaAgsCgRiH4T6LgZMMBUpvuz8Xx2AEODWxt277vPJgzNYaJ81CK0PwqKQizaJhkBDoCHQEFjiCIw65ghIhk4xIMWAnAO6Je7eeW+qD2AdwczMhMz3ey3FsMQFqk2/IdAQaAg0BBYHArEGAekEXveM2SHNgKiC1iC87IK3DNAcyfogbE19ENgsaW4GpxhmGkFYHHLRZtEQaAg0BBoCSxyBOoLAyAGjCEgxgDh0znv1rw8G8wOtQZjcvcUSCx07XQAmoSmGORQpthqEJS5TbfoNgYZAQ6AhsAgQGHXdMwsUMT3cxaDHHF92/ls0xYBTDLtxigHHE3G4UPshhBqESxpBWARy0abQEGgINAQaAkscgVERBKYX8F+kF5Bm6Jx7vp1iwIVMIAjWj9nIgRIETTG0CMISl6c2/YZAQ6Ah0BBYJAjEGgQlAqm9gdn+dMzxvFf9+gCkoNefk4md9+of85u7elkTGiVd1iIIi0Q02jQaAg2BhkBDYCkjsKdTDIwgaA3CK1/ztsH8YCCz01MyObElpRZQiIDuhXOzdlnTZZf8S+uDsJQlqs29IdAQaAg0BBYFAnUfBJYUcHIpxaARBBHtg4DLmthFkW+c1VbLjSAsCqlok2gINAQaAg2BJY9AXaQYUwzgAIge4CRD52UX/NpgrDuWOimmNsudrpIFpBjme7NyaYsgLHmhagA0BBoCDYGGwE8+AjVBqPsggBzoKYZXvubtg/58X/sg4C4GHF7QkIK/5mYmtUixpRh+8oWizaAh0BBoCDQEGgKjjjkCFUYSUqvlV7zmbQPckjgzPSGTu7emN8zjLoaxMZmbndQ+CI0gNKFqCDQEGgINgYbATz4CsUiRtzeSHKAH0qpVq+yY43mvBkHAZU24zdFOMdhRR0sxWKMknGJoRYo/+WLRZtAQaAg0BBoCSx0BHnPcvXu31hvwBZuP/6VOii9/1VutUdLcjPdBsA6KfKFIUVstN4Kw1GWqzb8h0BBoCDQEFgECNUGINQiYHkiDRhB+7rXvGMz7cUbc5ogrnu3NIAkeQUANwsX/3I45LgLBaFNoCDQEGgINgaWNQKxB0IsZvf6AqKQixVe85u0DMIWZ6SnZvSs3ShItVMQpBqQYpluKYWnLU5t9Q6Ah0BBoCCwSBGqCwKwBIwm4i8EiCBe+Y4CiBLRa3rn9Hj3FQDaBQIIVKc7IpS2CsEhEo02jIdAQaAg0BJYyAgvdxUDbjxSDHXN87TsGemvj3LQWKYIsIL2gxx1FvNVySzEsZWFqc28INAQaAg2BxYNAJAhIJ7A4kZGEdMzxlRe+Y9DtdLVR0s7tdwn+nd8MgmBFiq0GYfEIR5tJQ6Ah0BBoCCxdBEZFEOLhhEQQfu7C37AIwuy07Npxj+cXRAbz89Lp8rKmWbn0on9qRYpLV57azBsCDYGGQENgkSAQ72LgMUfwAGQQ8F/cxaCXNZ3/unfqbY64b2Hn9rs1rYAyBH2znm7wPgitBmGRiEabRkOgIdAQaAgsZQR+1G2OOcWAGoRuV690RgRhMA+KQJpgNQgtxbCURanNvSHQEGgINAQWEwLsg7Br1y5tioTIARskIjiAEwx6iuH81//mAKQARYq7d94jMuhIt2uhBrzm5qb0psdLL24phsUkIG0uDYGGQEOgIbA0EdjTXQyw/em65wte/1va8QCRgt3eahl3Mwzw/+bntQcCyEOrQViagtRm3RBoCDQEGgKLC4GYYtBIgfc3YB1C6oMAgqA1CP1Z2bntLuui2OloR8V53MXgKYZGEBaXgLTZNAQaAg2BhsDSRKCuQWBxItAASUCBIlIPnZ+78J16imF+vic7tt6R0XJGMTs94Y2SWophaYpSm3VDoCHQEGgILCYEFiIIsQ+CNko6HykGRAr0sibUIFgEgXWKIAg44XDJRf/YjjkuJglpc2kINAQaAg2BJYnAqFbLyB5EgoB/G0FADcL0pEzsuldQf4DjjRpqkE46xXBpIwhLUpDapBsCDYGGQENgcSEQIwgaKQAZ8D4I+Dld96wphm7X72KwGgS9jsFvddQUQ2+mFSkuLvlos2kINAQaAg2BJYpAvO6ZRYo8uQiikG5z/LnX/dZgbAx9EGZlx9Y7Da6OFSrg+OPM9O5GEJaoELVpNwQaAg2BhsDiQyD2QdCOiaGLImaLY44aVbjg5387tVrGXQxKDDTpYC+cYrBjjq0GYfGJSZtRQ6Ah0BBoCCw1BOpjjnH+jCDoKYZXveF3lA705tBq2SMIA69R7JAgzMgl7/+HVqS41KSozbch0BBoCDQEFh0CvIth586ddq2zn1rERFFmAHKgUYRXveH/KiIIfIOGF0RkWk8xTMsl728RhEUnJW1CDYGGQEOgIbDkEBh1iiGCgLSD1ia8+o2/OwB5wDFH1CCwSNEYRUemp3dJf26mHXNcciLUJtwQaAg0BBoCixGBmGJAtAB2n8cc2ShJgwSIICDEMDszJahB0ApFHHP0CMKMNkqabgRhMUpJm1NDoCHQEGgILDkERt3myEJFgIH0gtYgIIKA4w0gCJO77tX+SNpu2Vsuzs5MyNxsK1JcchLUJtwQaAg0BBoCixKBha57xmR5WZMShNf8wu8N5vvz0p+fK1otowIBjAIpBtzmeMlFrUhxUUpKm1RDoCHQEGgILCkEYh8E1BuAFCCTwOAAyIHWILzqDb876HQ72gdh57Y79QZHxA/wZvwDfRBwzLGdYlhS8tMm2xBoCDQEGgKLFIG6DwJrENTue4rBixR/T1sn9man9TZHa6NoaQZEEJhiaARhkUpKm1ZDoCHQEGgILCkE9pRigO1P1z2/9hf/G+oXZXZ6SnahSNGLE3HVMw4yzOK659kpubj1QVhSAtQm2xBoCDQEGgKLE4G6URLTC7z2ORUpvuYXfn8AMjCPVsvb7Lrn1DRhgD4Iu6Xfm5GL3/fu1ihpccpKm1VDoCHQEGgILCEE6ghCPJgAGFCXoC2YX/umP7Aixd6MdlLE/QsaRfDOSjPTu/QUQ0sxLCHpaVNtCDQEGgINgUWLQGyUxMua4nXPiSC8+o2/P+h2OzI9heue786AeLvl2Znd0ptrEYRFKyltYg2BhkBDoCGwpBCoCUKcPFst6zHHC9/8hwO9tXFmUnbv8EZJ1i5JCxVnZqxRUksxLCn5aZNtCDQEGgINgUWKwEKNkniaAUWKekcDUgzoi4QUw44tm8MpBqtFQIoBfRAufn+rQVikstKm1RBoCDQEGgJLCIEfFUFAkaKmHl7zi/9t0Ol0lSBs37K56KIIvGamdktPixTf1YoUl5AAtak2BBoCDYGGwOJEYBRBQECAEYTUKAkpBr2UaXK37NpxVz7BgDfPz8vc7KTM4ZhjO8WwOCWlzaoh0BBoCDQElhQCe4ogAIghgoBLmdBJkech0U0RdQggCLinoUUQlpT8tMk2BBoCDYGGwCJFoL7uGdOMrZaRYtAahNf90h/rZU240nn7VtQgWCvFVKQ4zVMMLcWwSGWlTash0BBoCDQElhACNUHgTY5stYwIQiII/X5fBv2ebN96u9cgdARHH/GanrI+CC2CsISkp021IdAQaAg0BBYtApEg8LKmGEXQJknoh/S6N//xQE8rzE5qkWLXIwgaScAxR40gTMtF720RhEUrLW1iDYGGQEOgIbBkEABBeMtb3iLbt2+3jolu99ksKZ1ieP0v/8mg2+lqH4RtW263N6L1sl/WpAShRRCWjOC0iTYEGgINgYbA4kaABGHHjh1KEGIXRcw8EYQL3/xHShBwpfOOrZv1qmf7P/YPve65EYTFLS1tdg2B/7+9Lw+3rKruXPe+KurVTFVRVDGDAgaHADEhaJs2SQdNKyjzbBUgMhhDMA7pDGbsv9J/9dff191fT+mYVpEh+uWzzaRBIzEmiKhBCCKKFEMxVdWb3x1Pf2ut/dt7nf3Ove89BDues24k9e65Z9j7t9fZ67fXtB0BR8ARaAwCo3ZzBFGIWQwcpMiocDnlQy+kGIRWW3Miu04QGiM03lFHwBFwBByB+iNgCQKTAWzWBILARZLE9cAuBoaDUxmnDjxFRTHUTIZgSuguzol1wYMU6y803kNHwBFwBByB+iOQb/dsYxBKLga2IIiloDMvdRBanPtIRJzZwBd1eS+G7iLd5pUU6y813kNHwBFwBByB2iMwqlAS0h3ZqiAWBI5BYIIw6HfFgjAcDiT/kT98vNeZp65UUvQshtpLjXfQEXAEHAFHoPYI5BYE7jCsCPx3iSDwASYIHIPARZMk/zHUZdY0R9+LofYS4x10BBwBR8ARaAQCuQXB6n3W/RyDwJkMrXe/Ty0IEoPwwpPqYgg5kXwRl1r2OgiNkBnvpCPgCDgCjkADELBpjmwtYF0PrwHrf5Pm+O8lgLHXWaCZQ09LbGIohSAXuAWhAdLiXXQEHAFHwBFoDAIgCNPT02IQQFgBAIillq+56fclX2Ew6EiQ4nDIX3mDxxZxuOLCwoxsBe27OTZGdryjjoAj4Ag4AjVGoCoGgbsL7wETBAk12HvT7xZMBYaDrhCEQTGkFvMD3ouh0L0YJAbhE/+LduzYUWPIvGuOgCPgCDgCjkD9EajKYkAtBCYGyYJw8+8XE+0JKbXMWQzYpInJQWEqKd7+iT9yglB/ufEeOgKOgCPgCNQcgeXqIExOTqoF4Zqbfq/giMXO4jxNHXyKuOwyKi1z0SSuj9DrLpAThJpLjHfPEXAEHAFHoBEILEcQ1q1bJ5kMrWtv/n3JYhgOekIQxMwQqii2Wm1aXNTtnp0gNEJuvJOOgCPgCDgCNUcg34sB7gXuNgcs8n+S5sgEgU0JTAKYIDA54J0c1dXQoo7HINRcVLx7joAj4Ag4Ak1CYFwlRcaBrQdiQbjuvX9QcG3lXmeRDh14klr8f+1WLJjUWZilvmcxNEl2vK+OgCPgCDgCNUYgtyCgMCIsCWw9YCtC69qbf69gV0Lci6HVEgsCf/giqYPA2z17kGKNxcW75gg4Ao6AI9AUBKoIAvcdFRVjqeW9N/6uuBi4WuIUF0qSOgjqh6CioMVgQfAYhKaIjvfTEXAEHAFHoM4IMEG45ZZbaGZmRjZlwsdu9ywxCJzFwBs0aZDi00IKtJqi7sfAMQi9XseDFOssLd43R8ARcAQcgcYgYAkCSi2jSBL2YpDdHNnFILs2dhdp5tB+jkuUQEWmCRyP0OnMeRZDY8TGO+oIOAKOgCNQdwSqghQRh8B95zRHiUG45qbfCTEIvBfD/pDhaGIQnCDUXVa8f46AI+AIOAINQqAqzdFu98zuBbEg7Lnht3Uvhn6Hpg7uFxdDPLHFmzXNSXzC7Z/4315JsUEC5F11BBwBR8ARqCcCVYWSEH/APWa3g6Q57r3xdwqumIgYBD2pLX4GjUGYDXsxeKnleoqK98oRcAQcAUegSQjkFgT0HSSBrQeyYdN1N/+uJC6wpWBm6lnZ6pk/TA445aHXmXeC0CTJ8b46Ao6AI+AI1BoBbPc8NTWllgIo/tBrdjHI8T03fETSHHkvhvmZ5yU4MW7GQESdDlsQup7FUGtx8c45Ao6AI+AINAWBUZUU0f9oQWCCwNGKvc4CTR96JmYvcDVFNjewi2HQ73qhpKZIjvfTEXAEHAFHoNYI5ATBbvXMHZcaCLKb442/XQw5BqHPdRD2B1AK9jFIxqMUSuI6CLd5kGKtJcY75wg4Ao6AI9AIBCxBYGuB3ayJAeD4A0lz3Hsjuxja4mKYmXoGZRCoGA7lBMli6HOhJCcIjZAc76Qj4Ag4Ao5ArRGwQYrYvRF1EDj2cHJyElkMHynYVrC4OEezEqTYipUUmST0ugtaKMktCLUWGO+cI+AIOAKOQDMQyF0MtkgSWxNikOK7rv/NsBdDh6ZDoSSJaAwbNvEmTr3eIt1x2x97HYRmyI730hFwBBwBR6DGCFSlOVqSEF0M19z4kWIwHEqcwcyhZ6IFAQSh05mngccg1FhUvGuOgCPgCDgCTULAWhBkY0aufFQUukmjjUHY857fKtrtFnU7izQ9xZUUtQaCXEBEXVRSdAtCk+TH++oIOAKOgCNQUwSqCELU+8HFEEot/1bB1gIORJw6sF/JgfyvLYyi2/EgxZrKiHfLEXAEHAFHoIEIjCqUhEqKKYvhht+SGIRuZ0EqKXIEIz5aQGlO9mm43S0IDRQj77Ij4Ag4Ao5A3RCwMQjY7pn7CCtC3IvhXdf/hhRK4hgEroNg4hPFycDpj/zbHZ/0IMW6CYn3xxFwBBwBR6B5CCy3m2MkCHveo1kMnMposxiGA66DwJaFeer3udSy10Fonhh5jx0BR8ARcATqhkBOEGA5YA8C/80EQWIQ9t7wm1JEiVMZOYshZDcGPAqpg6CVFN2CUDch8f44Ao6AI+AINA+Bcbs5MhqxDsLV1/96wTkLvN+C7sUg+Q7sjRDU1ILQ8ToIzZMh77Ej4Ag4Ao5ADRGoikFgSwHv4Mgf/ld2c+QYhKIY0mDQEwvCkHMhuZqiMgWtpMgxCG5BqKGYeJccAUfAEXAEmobAqN0c2b3AboboYtjznt8QKqBZDM8JKbD5kE4QmiY63l9HwBFwBByBOiNgLQhiKQi1j1BNkV0MWgfhPWxBKKjfW6Spg1pJUesg6HbPvA20bNbkFoQ6y4v3zRFwBBwBR6AhCNg6CFW7OUaCcNV1vyZZDMWwT4cOPJ3gCSRBdnOUNMeP+l4MDREe76Yj4Ag4Ao5AfRHIKymiQJKtg8B/t5ggMAyDQZdmp54T/wNOEtfD4rz85haE+gqL98wRcAQcAUegOQhUuRhAEhgFjkEQgnD1u5UgdBYXaH72Bcld4EBFfJDm6BaE5giP99QRcAQcAUegvgiIGS+xAAAgAElEQVTkBIF7igBFLpwYgxSvuu7DRbvVlkwFLrWMj1ZULKi7qDEIThDqKyzeM0fAEXAEHIHmIDAqiwFWBI5BEAvCldd+qOAoRq6DwEGKuodji1ptjktggqCbNd3xyT/xGITmyI/31BFwBBwBR6CmCDBBuOWWW2h2djbWPgA54H/XrVsXXAzXfVj8CVxOOVoQUp0ksSBwlcU7b3eCUFNZ8W45Ao6AI+AINAiBqr0Y0H12MbDRQKwIVxuCwJUUJaOBzyzYJ0EhzdGDFBskO95VR8ARcAQcgRojgDTH6elpYkLA/+HDFgROfZRARQ5S5MDEPAYB5gbOYugPunTHbZ7mWGN58a45Ao6AI+AINASBqs2aZFOm8GFywKShdfW7Pyx1EHS752c0BIGjENq6FwPXQeD4BI9BaIjkeDcdAUfAEXAEao0AYhBmZmbEUpCXN4hpjlde+8GCmUKvm2cxSBoDdTrzThBqLSreOUfAEXAEHIEmITBuN0c2GEQXw1XXfagYDoYSiLgwe0AMCDA18Im8RwNnMdzpWQxNkh/vqyPgCDgCjkBNERhFELi7bE3gAEWNQbjuwwUf4GqJullT+jBB6HAMghOEmoqJd8sRcAQcAUegaQjYOgjYi8Fu0sgEQWIQrtj7q+JiGA56ND31HPHWz1z/oB32heYgxZ4ThKbJj/fXEXAEHAFHoKYI2BgEEAT2HCCbgQmC7PLIBEGCFPu6F4OUQOBUx0K3fe5252nQ8yDFmsqJd8sRcAQcAUegYQiM24uBdX/czfHq6z4k2z13u4s0O/183KiJLQnMJiQGQXZz9EJJDZMh764j4Ag4Ao5ADRHICQIsBxxuwJ8Yg3DVdR8s2KXAcQazU89zlWUutCwnFVQIQfA0xxpKiHfJEXAEHAFHoJEIjAtSZEA4QFFcDFdd+wEJUuQYBLYgDIfqWlCiQNQJFoQ7b/8/vhdDI0XJO+0IOAKOgCNQJwTyIEUxCISwAv6byYFkMVy+5/3FxERbiMD8DKc5FmpBYHZQkFoQuJKiuxjqJB/eF0fAEXAEHIGGIpDv5mhLG5QsCFdf98FiMBhInMHczAEToCh1kiRIsd/rklsQGipJ3m1HwBFwBByBWiFQVWoZVgTs5ihpjlde86tSXJn3YpAgxQADuxo0SJHrIDhBqJV0eGccAUfAEXAEGouAtSAIEWi1onGgRBAu33Nr0W61aDjs0/ShUAeBiPgYf7SSohOExkqSd9wRcAQcAUegVgigDsLs7KyUVYb1AP/yMf6vdcXeW3ljZ+p1F2lu5gUFIZAD9jFwCeZ+t0N33vExD1KslYh4ZxwBR8ARcASaiEBeKCnHIGYxXHnN+yU+gS0FTBDa7QkqaBh3deTYBHY/eAxCE8XI++wIOAKOgCNQNwRyFwP3j10NCFaMpZav3Hur7ALNgYgcg6BBCFoJgY9zDALXQbjzdrcg1E1IvD+OgCPgCDgCzUOgiiCo80BDC0oWhEF/QAUNaIYLJQldIGpx4ALXQZDNmjwGoXki5D12BBwBR8ARqCMCeR0EVFCEFYHrIITNmm4tmAhoFsMLuheD2Y+h10WQolsQ6igo3idHwBFwBByBZiEwqpIiiiUlC8LeWwu2FnCQIu/m2G6pH4IZRbvNwYtMEHruYmiW/HhvHQFHwBFwBGqKABOEW2+9laampqRqIn/yGAQptXz5u24RgsDBiGxBUP8CyZbPupsj78XABMFLLddUVrxbjoAj4Ag4Ag1CYCUWBElzvHzPLbKbYzHkGITnaMj1mPn/OFiBd3nkNMdeh+664+Oe5tggAfKuOgKOgCPgCNQTgbwOgnAAxB+2WmJNiASBCYHs5jh9IJ4EWNjFIBYEr4NQT0nxXjkCjoAj4Ag0CoEqC4LdrCnGIFyx91eKYjikbneR5mcPSQVFDlTkGAS2IvR7i0IQ7nAXQ6MEyDvrCDgCjoAjUE8EEIMwPT2t2zqz3g+7ObLuZ4IguzleseeWgt0KXOtgbvoADQsOTmwLKnwBuxdksya3INRTUrxXjoAj4Ag4Ao1CwFoQQBAsAFwoKQQp/rIUPigKrYPAOztKoaS2xiBwdoO7GBolO95ZR8ARcAQcgRojkG/3DI8BNm1iciAWhMuufh+nK9Cw35M0R5ygpIErLC6GQkleB6HG8uJdcwQcAUfAEWgIAnkMAgIU0f1Yavnyd/2yZDFwDMLC3JQUWJbdHUNEo1gQBl4HoSFy4910BBwBR8ARqDkCNgaBu8oZC5YksPVAKileetUviYuByynPzx4UghC4gUDEMQiyF4OnOdZcZLx7joAj4Ag4Ak1AII9B4D7bQMVIEC6+4qZC3ApENDP9fMxeQB2EjmzW1Ke77vQ6CE0QHO+jI+AIOAKOQL0RyOsgcG/tfgxSA4F5waVXvbdoT0yESooHIipgEyi17IWS6i0w3jtHwBFwBByBZiAwLouBXQ3r1q1TgnDJVe8tJtpt6nYWaW72ALXbE8EXoa6GQR9pjm5BaIboeC8dAUfAEXAE6oyA3YtBYg2YDIRaCNxvJghiRbjs6l+SIMXhoE+zM2xBKPA/Tm6gXrcj8QluQaizuHjfHAFHwBFwBJqCwHKVFJkcSJojuxi45gEXQ+JCSeKLKIZxh6fO4gINBkwQPuF7MTRFeryfjoAj4Ag4ArVFwMYgYDdHNhSgSCIfE8vCZVe/V4IUmSDMyG6ObGrQGgj8b7fDBKHvFoTaiop3zBFwBBwBR6BJCIzazREYiPVAgxRvLtqtNnVkL4aD1G63qBhKsmPci6Hf482aPAahSQLkfXUEHAFHwBGoJwI2BiFaC9hQ0O+L3o8xCJdeeTNv9CgWBC6UxH+nXZ1ahN0c77rTXQz1FBXvlSPgCDgCjkCTEBhlQUCxpLhZE1sQeP+FVqugmakXxLfAlZMQ2dhZmJdKik4QmiQ+3ldHwBFwBByBuiKAGISZmRkJRsReDOgvBynKZk1sQeAqSbwh09zswVhuUUoncRZDR/dicIJQV1HxfjkCjoAj4Ag0CYHlYhDibo6XXHlTwXsvdHsdWpg9pJGJxGmPQ2q126EOgscgNEl4vK+OgCPgCDgC9UXAxiCwtQAfdjHwf5OTk1oH4ZIrbxSfQj9YEPhEW5O5jzoIHoNQX2nxnjkCjoAj4Ag0BoFRlRQRg8AWBCEIF19xQ1EMOepgSLMz6mKQfRj0fybN0YMUGyM93lFHwBFwBByB2iJgCQJiEGAc4H+ZHGglxatuLjhAoddnFwNv9yylELgagtRC6PV0u2cvlFRbWfGOOQKOgCPgCDQIARAEDlKUYERTZplhiDEIF19+Q8EGA66Y2O3MSZojf2Bq0O2eeTdHtyA0SH68q46AI+AIOAI1RcASBGQsoqus+2Oa4yVX3CibL/T6oQ5CcDEIoxgWwYLAlRSdINRUVrxbjoAj4Ag4Ag1CwBIEdiXAIAAI2IIgxOGSK24QFwOThNmwFwPcDOxo0FLLPfrTO2/zvRgaJEDeVUfAEXAEHIF6ImD3YqgiCLEOwsWXv6fgdEZ2JcxxmqP4F7TUMqc/9nq8m6MThHqKiffKEXAEHAFHoGkIVLkYEIfABgNTavlG2e55cXGBOgvTUvsAmQzsYuCdHLkM811uQWiaDHl/HQFHwBFwBGqIwKggRbgamCCIi+Giy66PuznOz7EFgZMbgxmBePMGtyDUUD68S46AI+AIOAINRSAnCNjq2e7FINkNHIPA2zkXxVBdDJzEYDiCpDmyi+GuT3oMQkOFybvtCDgCjoAjUB8EbAwCEwH+sGuBrQb84RgEsSBwDAKzAiYJGoOgDAEcoceVFD1IsT6S4T1xBBwBR8ARaDQCuQUhB4PTHANBuJ7rIdGg36W5mUORQYiToShkoya2IHgMQqPlyTvvCDgCjoAjUBMEsBfDoUOHpFASLAfY1ZFjEMTFcPHl1xf8Y7fboXlkMYgdgTd55CwGrqQ48DTHmgiGd8MRcAQcAUeg2QjkuznGLRYCLGxBEIJw4aXXSZBiwS6GuSk2G6iTIZRehIvhUx6D0GyJ8t47Ao6AI+AI1AIBxCBwqWWON0D8gQ1SlL0YLrrs3VJbeTjo0dzsVLQcgFFwHQSOT/BCSbWQC++EI+AIOAKOQMMRyDdrQkgB9H7crOmSK64XkwETgfm5aa2BEEIV+SKugSCVFN2C0HCR8u47Ao6AI+AI1AGBfLtnG4PA/YvbPV906XUapDjo0QK7GAI9kINMEPq6WZMThDqIhffBEXAEHAFHoOkIVO3FYGshRAvChZdeK5UUSeogTElA4sQE50Lyds+FZDBwJoMThKaLlPffEXAEHAFHoA4I5GmOiEFA7GEMUrzosusKdin0+mpBsNGMmubY80JJdZAI74Mj4Ag4Ao6AI0BEuYuBQWFyYAkCk4TWxZe/W3Zz5FgDLpSEqkp8ASwI7H64606vpOiS5Qg4Ao6AI+AI/KgjgDoIU1NTxEQA9Q/wb4xBuOCSvZLmOBwMxMXAFRC4/oHUQeDdHLshi8GDFH/UZcLb7wg4Ao6AI+AIRAsCpzkiQJFh4b/ZMBArKZ5/8R4tfEAFzc9NCZOI5gZqUbe7SMMhByne7nsxuGA5Ao6AI+AIOAI/4gjkhZLgMbAEQXjA+RfvjXUQFuZntNvYsInTH/sdGnIdBCcIP+Ii4c13BBwBR8ARcASWxiCwt4A/CFZMlRTZxdBuiythYW6GWm09USsqYS8GJwguVI6AI+AIOAKOQB0QsBYEthrAzYBKirwXg2zWxC6GiXZbshW4UBKKJNlSy1xJ8VN/6i6GOgiG98ERcAQcAUeg2QiMcjHAksBBikIQLrxkbzEMdRA4BkELJGmVJA5W5E2cOIvhU396h8cgNFumvPeOgCPgCDgCNUAg34uBLQcocQCLApOElmQxyHbPakFgE4KaGTQnso+9GDwGoQZi4V1wBBwBR8ARaDoCtlCSWApCDAI8B6mSoqQ58p4LIAhMDDRYQdIce10PUmy6NHn/HQFHwBFwBGqDgK2DwLWPkL1gd3OU7Z4vuHhPwYGJg0AQ1LmgtRD4f7KbY3/gMQi1EQ3viCPgCDgCjkCTEch3cwQxgJsh1UG46OqC2QMHIs7PTtOwUMuBmBwKCnUQmCB4DEKTBcr77gg4Ao6AI1APBKpiEOBe4H/ZeqAxCBe/S0otM0HoLMxJBUXd8rklKY+opOgEoR6C4b1wBBwBR8ARaDYCVVkMQASVFDkOoXXhJXsiQeBCSQhWUJLA2z13qd/nNEe3IDRbpLz3joAj4Ag4AnVAIN/NkfsECwL/HesgvPPCq6KLgQmCbv1MsWASZzEwQbj9kx+nww8/vA7YeB8cAUfAEXAEHIHGIvDoo4/Shz70IZqenia2FCAGwdZBkCBFJgiSAzkc0sICE4ShBigqpZBdHtn98MnbPuYEobHi5B13BBwBR8ARqAsC3/3udyNBECLQasU6CNzHWGr5/IuuFoLA+y1gLwbZ3bEoJPUBMQh33P4JJwh1kQ7vhyPgCDgCjkBjEWALwgc/+MFoQbB7MTAocbtnjkFg60G315EgRSmCIGWSSEgCF1Bi8nC7E4TGCpN33BFwBBwBR6A+CMDFMDU1JRkLIAjoIRMEOX4+uxhIicDi4jyXUQzuBaUJ6mLo0R233+YWhPrIh/fEEXAEHAFHoKEIwIIwMzMTCQJqIDAkTA7YzdB6x/lXFO2JthCEhYXZUoojcwV2MQyHA3IXQ0MlybvtCDgCjoAjUAsEFhcXRfk//vjj4mIAQciDFGOhpAsuuroYDAdCAhYXZtW5wMwgxCkiSNEtCLWQD++EI+AIOAKOQAMRWFhYoG9/+9t08skn0/79+0sEwboYUAchuBiuLDjugC0Fi4tzMYOBiydxkCLXQeAsBicIDZQo77Ij4Ag4Ao7AjzwCbDl48MEHaX5+ns4888xIEDjNEbs3IpOBdf/69et1u+d3XnCFEAQORJyfn1Eg2IDAaQ9UUD8EKTpB+JGXEe+AI+AIOAKOQAMReOqppyRjgT8nnXQSPfHEE/SBD3yAZmdnpQ4CPtj2mV0MUknxvPMvK9ot3YthYZ5dDLrVMz79QZcG/T7deccnPUixgYLlXXYEHAFHwBGoFwIcpGgJAmIQ0MsYg/DOC6/gzRekWiIHKTJZYMuB8AQiyWBg8nDmmWeUExz4R+YRhfw/pRU2fAEcA3xDciVCCmX4TUId7EXhsfKzvT48AQWc4i1xWul+geNkRCcypHB8SfNK7Ud/uHgE+qWAxDZwKepgZYlHpf/aOqCi/9rvapnBJyWVlvbRjGMQS18H9HAl7ssNDPtqhfbp8/LjcbisnIe2JqxDn1Kn46Cq+QljHvrY0jHV6NckC4oLxoGvSQPLSOhvdhRt63gX0fBb6XlW3uzNcRzHErnVrvLzTPGvEe+5kU45Q78rykHQY590TPQ4xtLKhR3cJLOQnxDiE4U8yQISiKTV4V3Cc8rfURY1PEmaA0EtAa/SF1KXFXYzxquY82wZ1pVeZqOio7yHgiwrvce483D/1bZttefnbXgx1zsWo0fyxeBp7zbq+tXed7Xnv1i5qJKFl+r9WAkW/PxOp0NcbnkwGIgrQeecNHfGQknsYuBNmTgYcYHrIJTsB0wQBhKHgAkfU2OauHQmi+otPGSJ7hnqBIa5VQsxQbNrzQV853txbQYmK1Be7BdptdpSApp/AyPRKTqpYTudizLC5Im51E5QxpUCJaAKzCjwoH3TsaD6CyJuPs5k0NFeNdPo72m6NsTBankzaUeBC52IbYlkJNwvfNeupbYqVktZWkkgw1jxqRCmQIeoHQpkQUzs77J5FwhRbH8Y+9Ce2Ff+HjofS3czjiBQgU0malkmXrrTuBkHEMmouJOUxv5HwQyNY1nLuGLEC7/lGlnkjh/GSpRfmkSU0fdiqMrbYsH4ydhz7ZDhIFxbHivbd75Wi5GpHOsro0QL5KD83Uh5dr55pyM5TRNXWY7Lq4T0Jo+auvPIZhAMu3c8+mLvnRddiSTXyAnuZa/PFX4+kY6aWPNJcdQkOW5iXo6wjMIiJ1+YbGGqjWPNc5aZhFfbl/z5VdfLHNRul+aE1WIxCsv8eYhRA25VY7VSLJbDPv89l7VRWNixGfeMlV4f58NMjleCxSg552tz5VzV3yqSb7Efd49xRBo1EOw7yveKhZLYgsCN5BLLC3MhBiHs5BhNBqXJGurETu/aVEzALTCSUGxJgGUgWi1RQkIAMDmLMmnL7/Jv2CSqalKxL12VYAKIOOAVc2D+W35N+XvoV1AWsclmTannJ2WSVp6qLuNvogBYGNLqE6tCu1pNL2hqvL70jJmSJFhs8lW4FfQlWAS7RqRyURkFxS+kZqlCQXt0PGA5SMrMPgerWJypvyXlpxNGWHkLFmmBrs9BH/X+rHSx/bjKhe4wKpcNzb1FkYfMm9AFEEV9BCwSYTUNBhQPw8KhBFbbAatIGjJYaoS84Hdo6HBNeAmS/SoQ0tj+QJLkHQkTDZPjRF5YQsIYm9W+4qPjX1IWJQKcyGsJXEN4y3KhzxGyIgTckpS0mrDPszLCz7AKycoK7gciYCcw+1vVxJYrQ0smoATz9lplNEqhjFOWdhU1Couq98M+yxIni0v+Xr7cWFSRtlHKJB9P4Is2rgYLi++LwaI0l2Qr2io5yuXCyp+VoXHjbsdiNVjkChv4VrUBsgUigeeMk4uq+dvK2nLvSN4OtDcnArlcAA+OPwhBipcXfBEHI7IFQRS1LpHUMhBXg1gOmxWr3k3JQdAK0nDUdcYPsfhSIAp8fiARaaLXpopAttthNYsVVlJirDBYccikVjCxwco9tTdNFkMaDguamAgKtuS5CJtSSVfLrDsXVF3Rwioed6pQ1ZMWrFEpyODAMpBZCGAJhnCnFxIEIpl6lF0GpWgUuPSvUKtLUtzJfAwhwMsNYeHvjIVdnZb7Giw8RnOXfwdBSK4UURLBsqBCm6xEwVCw5HnRUgSrkhBJHktWOGmsRXyCBHNfl77MOvYRa6P4gfOSFyIoWpa79sREKgwG0pp4UMmKoaQgkVhV+En+YWIDycWeJmVZ0LEUsgy5CEQhnywgF1Deqe+FjruZQFnGZRys1UbRMn6eJFd2chm1gqmagPIJKsc2nzStktD2jV7dqmxOyPu8HBZWAebtHDdxWoUCPK1SGNXn5bCwK8icROCZLwcWtl1W6eR9q1Jm9pg9f7WKyY4V5m9RLIF0QmasrIyTm7zto+TCjmVObKtIzSi5sHNKVVtzmcnfAVxvSTbOQTsYD7xn9j2A3ODapAv0DvY7/22xsO1YLRaj3gM7ltHF8A4OUpR0xp4GKYIYZK4GKH5MO7GBwVwrvoyJtk6qYTK3D4Ril8ZlplscUzNtWOMaHhLPj4ua4GPnyTasLPNO67ODCwCuBBxLfggzhyqxEYVTmqQSCVBhYBKT/LrJN2wVu5qZ7W9QLtJOs/pNToryhD7qpUbbxF0TBsHiHF8WrD4ZA7vazlalyT1kwz4UoNyUDIyD+IZJIGARiGSJJEDpllw5IDJmlVxiYKFTcWWOWI8UCYDYlTgZBzYAm5bdbEzPSeOF9sHikKwBwaVh3D98P5AwlQslMam50TYRCStiLIQ0ZS6MOElBkMJLv2T1W9Lr5f7rGKQYBZ1Eqt+5KrnAMTup2vPyv+0Eaq8ty0Ka0OwEj2fkxMBea+W8StGOWgnZCRLn5MrNWirsc/LzfxhYoL1VWOSTPX9fCRZWOeVk4aXGYlR70PZcmdk+5W1bLRY5CamSnyq5frnkYqWEcNw7ko/5SuUiH9eXAgs8274jMYuBCQL/wMGIC/NzMTgrDkrwB0/t3kedHVNVsvxDPZYLS5XwrKZB+fXt7ho6/LuvoHZPUz948sUKTXSWpITyShJqKLkOkk4zK2njTsmZrn25yi9UWA0G5R4FMigOMM5xZkxpalixlSb2EIPAx3jFlphtss0PQ4BeJAhhxcsEkLEQn7toybCqBlUxriQoZZkcEEMQ+qOXJrcTqBGC/uKYRAUbVt5BodoVpMRNhJodUNfWClYiCNKUYIkwUbCwXOjjEkEVnGV3U7Uy8fgOBrz6V+sDP0etJCoLWNmDvOUKyhJP3FuwEatCCh7U/ikRTUGSSUL0RVZLArMFuKD0Gq1fgkk5nzhX8n3UZIV7WkKTr/CsOTVfpebv5ahJHX3ILWBV77pVAlZJ6ZyWArAwkVrZ+WFgAcxWMyfhXPue524Zq3SXIxg5FvY78LOr2VxO7ff8WXb1y/MJcGbs7feVKsBxOGF8qzC1eOTEwCr0KixyOXtm5x6a3/4zaVfjkh0ut8st/Z7ms3JvzNojBWqXYqVCnJ55XnL0paWkMXJG56FdU+R/L3nviGjD1L2069k/omF/sRSkCCziXgxMEJSxDsSCIEAjSMz4dfeffR9NbLDNfTEi/y//Gu7ylq+dRJNT2+IwJcUegsXM6l2NITr0yX2AoLLkfsFLpgjAV1zQRDuYVVkp26jHAJXqrHIkuiUWmPB4YHNSh5dmgk1cQZkk44laRtRMDjdLiJGI1gDjOrKiGC7U56nihIkdK2z5LSrhzBwVLQsx4s4oupRBUloq2wyRCiuXxHHEANlgpg4kRt1DgRhkwZOI6URAYlTOxtKi1gDrn0qWg7SaR3xDTD8oZwyYtxYKHjabNAHrYOhEaC0Q6uNKFiMTI2HNVEa2qsinxYd/t4oespMrB6tYqxS0nZjtPSCXuH7UqqtKceQT9ihinfcxP89+Rzus8rXHcizsTGWJR97H/Ly8DaNIVVXMxDgsbLvHkYN8PHBdfu9cydp2V2Fhla79Hcer7v9SYQHMc3fYauUC5+fENcfikTO/QBsna67r5vbRzgd/hQ4bHCgpZWDN5E7rILzz0gIrD+zFkNMS/v3ps79KE+s1Urvun01fPZE2zOyIJuUYKc5kABO1jdFg10TmZ7IY5ROzqIEYvMYrPiUJVZOAHItZInoGnmUFvjRp6HI2DqP4piVmQdP9mIhYqwhWzojXCI80pnm1FNj4CXiJNFxFV8DiRkL8CFa/5TB7jT2R/mSBgXx9WP2WfDPG1RAVAnpmXBdlVwFsEcHtA/zCal36J/EPaRzKaYKKlfhSrUvMZD/A9bDEzRPkQpRcwCJhp7EpSlgQcCqtWUIuh2H1W5IdQ0zVzaWIYPzsxFelzKuUGVaAUOhVqzOr3KFULTHNZT1/tl2d8rlVq2H7fFwP+YYlwGKRn19+p9SqEuUli1/J56/8eVXzWxUxyAkIsMnfYzsuy2Fhr7VY4VmWPFXNMVaJVhGJ/Fg+VviOOSbHpoqAjJKdqjktl1HMZ7avIGQgqzmZWi0WVTjZscrb/20mCOuqpKBGxzKCYLFmPGKQIlsQeLLiWgeLC/NBAVkForPQ02ffWyIIaw/bRidsO47WFtP0ihN/kf7yvj+mt56+h9r9QzRcPECffeRuOv3YV9I3nvgOHbFpBx2cn6LTj9pN35kqqL/4OJ2w42Rat3YL3b/va0QTW+i1WzbTAwefpGN3/SwV0/fRkwszdNiaLXT01iNp07ottO+FB4nWn0hXvO48euTpe+iYI0+nj375v0rb3vLqS2lNq0eL88/RFx/7Mu3efiptXbuGWsU0PfLC07Rz8/G0bf12ov5+evTgs7Rpcjdt27SDWsMBrT3wXXqgh+wNFYCN955AG2a2y98ygQYz+dIgsKWBXyJ4WGyaKPmozPWmS0zsVvTiBGpcCsh0WJqfn2U3lOxYcHUgAh6ZAhzcF9IOg7IEidD2mwAQ0zAQAWkDK09jPYkTW8zWSNhloSOx7zJZlKxVaZkd4wyCewNmCgkoRSBtboCP8Rb6xFLsigkeiJNiIA6ChVG0MXgFGQehc8EDkdIc2eUhQbLihDCGwWRuGLWi01sigyBYDCJ5gLsBsQYp0wAyGWUzBLKWLQ7h7ibtbZRisApiOUW5nHKoIiWY7KEA0O4qhYtJG0oE5GVUDINVJGFh42UAAB34SURBVFZZjzJnJ1I+ujbEKBKSq4aVKlp73XJYVD0jV6jjsICiA258v3FY5Ctyi/8oucjJHdpcZfXBby9GLkZhYcdwnIsVcvZisMgJAsd1H7udaNc6oiM3Ez35HNH2Y4iOmtD380++RnTqbqJn9xOt30j09DzRTx1P9NXHiXZMEm3YRrRrQHTvM9qrM08guv/7RLSF6NT1RN9+hmhiDdGpO4kWukQ7dhI9u49on1YdKH0OW0fU78r6b8nnmn9N9HyIAvjSN4jefBbRCVuINk0SffQzRE/aK+b20ZEP3Upr+y+U7gO8YprjO86/VJYiXAehszgfI8nVIh2itocF7X9D2YIwsWYjnfMTN9Fr1w5o3dFn0H/49PvobWdeQ+sG8zToPU2ffeQrdNKu0+iRJx+gt5z6OhqsPY2OW/c9+sbiafT6jdP02p1b6bPffYw+80+foX916jX0c8cfT//5nj+k6cFa+sljfpK+8tjf0JqJ9fTa499Ml73mHPqDv/h3RBuOpz2nX0DfeuILdNHZv0S3fuJa6dwvvPpSOuvUn6NvPfJp+r8P/TWd//pLaao4ml7Z/gf66Nfvo8m1W+mGf3Mr3fPAx+gbT32PWrSBzjn7A9R76nM09/2v0+c7z5dA2sgWhGl2MRgCwCu2YPbNBR6Ks5T7nw2fnGOCM9M9sHqMa1G5Uvzipi5BzPpAoFwImIThQXWcVVKlAH25Z4wpQAR+UKLi/w7ZA9zEQTGkiZAdYGsBiBKKAVSwSgTTfVCy0ZzP9yu0SJG0K2jXOAGjk7lSt+6NgCEmVqkboHkS+ku41tYhKKeZykPUbG9JT0it1Syd8BBteHCxmXRcQ0ZwN8VS+zSQeh2WkKjbJSd0ePHKgbNJSNCOKBehPcmaktxSVZO+nQitUqla5VrRtEo2n3GgBEtyYyxC9ne+dpRlAO9RrkTwvLwNljxYuVWRSbn+VYrHPsu+v/jbrmqr+rvS+Is8viRf2afYnmSlssRnFHEcNR45IQEWOaGx/YzvDUi2mc/igqWicFU+7uPkAuOO5yY510UQ2pn3twqLlY7Hy41FThD4VT/lFKKbf4yo0yW650Gi4Q6iXYcpQfjje4l+4SSiv3iU6MLTiB4uiM4/mugPv0D0a+cQHXks0d13E33qUaITTyS64Qyiu+4huu95orecRvS5h4hefxrRxLNEj3aI3nAG0Ssn9JxdJxEdu57oK08QvelEom3HEN3z90QnHE/0zW8RHXMK0cGniB45SPQfryb68rcVxb/5JtH7ziV6/hDR5Fqi2+4m2rdoEJ59nHYagpCPh4lBuLQUgwDTpQpQmIcrXAxHbH4NXXTG2+j56b+nE09+N931pf9EP//KN9OZrzqHvvnQn9HDT3yRptceRrP9k+idr3ot/fkDH6OTj9hKT7V/mjbOfI7Oe93b6AuPPUZ/te/b9IYjjqB7vncvvfXUn6W/fPgL9PPHvIX+et9n6JRjzqbXb1hDT6zdSCdt2Ex/9/whenVvgYqtAzrnjBvp1o9fS0duexX94qv+LW1cu5bWUZv+4eE76ZgT30gd2kVHtR+ifQdfoKeL3XTM1IN0YMsu2j4xTw9Pb6Wzd6+hLz/Zo5MO/dMSgrDpvhNp/dS2cr659UEH5STBisEaoC+CreWAXPnky0qCXY5EFxMazO7Wb58pY7keZmak65nCOalOgY5byrYoOdBjfQFMsDFCH8oXpmtDihBrYSeW0po51LmQtXQIurPprjl8iK2IabKBrGidB0GzPF/ARcIxDyFAT4s36WCIGT9rv43d0ADCaJLRJ7ByR7BhiDlQIoeAEiUjEipoYhLCrJf4WDT9BzJS4S5KuC0lbmmyR5dTHAKO2FgUbkvVCs8qh1xhjVq9xvtXKF47wdt7539bpWvJCfqFZ0D5WiUyanWJZ1grgm2rbQPuYe+7EiyAI8619x+neKuwAN4rxcJOyPbanNzZVf7LjUWSw/Kc9WKxsOOfy5J9ue0c+lJjYccqV4Kj3pGHz7i75GJYu57o8p9SK8Bha4geOki0bRvRT7+C6NHvE33tcaJ2l+irc0Q3/TTRV79OtPFIos98k+ii1xId9zqi73yF6NOPEr39NUSf+RbRL5yuSvytP070V98kevNpRP/4MNHsgOi8NxG98CzRW3cS/c9HiN5yJtHWA0T/4wGiY04m2jhJ9No+0eETRI9sIfrzu4mO2Er0plOJjt5CtLhA9OQ00dE7iHYeQdSdIbrvn4m+9H2iAYDPLAg5Fuxi4EyG1rnvuFiyGHiCnbeFkox/syoGYcO6I4iGHTp59yl0zlm/TP/lMx+if73jdfRQ91l647ZT6K7vf57OOuHH6cFnnqSFhWk6ctN6Ov3onfQ333uatqxp0fq1a+m0o8+gx7qT9Kr1k6HZQ7r/6X+kIyc30j88/k16wyvfSUdv3kSbJzfS9MIczQ26dNqRp9PU3KP0xlf8DF3/8Wvkur1n/TptXNen/twz9Edf/xht3ribNky06aQjttN9j3+XNh+2mZ6dfZrOesVr6MGnvkdr1myh6bln6IQj31xNEL7KBOHwFMEXWpevTkug2sC9EFEGPYFMCLuas655u/IvBTpC6cYFuCpNmWg5xgBVEVGnQd5IY9rHe57FS0g7QjZCfDmDuZy/w3JRChI0Uf+l/FHpa2F8+qHYlbUMBL3MrbdWkTyjoIQvIvKlmiYyHpL1IJItBPNFcz/SSxO7FQUCW0KWcYAxsUpGIiRCVkH8PWR2KEkz3CDgguNxUgw1HaJlIBUaj5YPxV7JR1KU6ZidRHMlmCu1/NxSf0yQqyU6GHur1KpWZ/beVW0ap1hGrfZGtZ/bxDEHIochjmBczMI4Mzna9YNgkROeHxSLUQSq6jkgBHjn+d/VYvFSycWofufH8/HOsc8JVJVcV8mGxQJyO86KUyUXeVtHBcM+8hNfLBGENWuJtkwQbdlKdPmPET34GFF/K9GDTylJuP1eore8huhvv0e0ZkB0xEaiM44j+vQ3iI49XN0HZ24hun+e6KzjUiu+9X2i3TuJPv8A0c7tRFedTrTvENFwM9F3HiO69gSiR7cQnXIC0b77if77/USvezXRUYcRvfFooj+7j2jieKLPf0nv+ZHziP7bF4ne/Cair36W6OAmosPaRD/1aiUo/2wAaM3toyMeupUOCy6GHAu2IEgM1nnvvLjgQRr0B9TpLBivbih4xAVl2u0lMQh41uTa9XTS7jPokae+Tmed+PO0bXKS5qcfp7v33UvHbd9N+w7sD0ptDR29eTM9MXVQvrdaE3T01t305KGSZ4SO3fF6OvjCfVThfimN7+tPOJvu+/5X5Njpx/8MHbv5SBr0X6DPPfK31A8mtSM2HU6H5meoP1TetGPT4TS9MEu9QV++b5rcRZu6h2j/sFO6d4xBwKox/IpVGJMpDTbS4ML0cgfFgoqQsWSwiToPq1G9lxbqsWtlDRhNhXDs6lUVO1ekTCtbrLTjHgcm4I1X45ydohYK7URUZKWIQ7Ngj9kCKdceShJVMDWoLph6h5oBIytxW30Qq+4QEMnXyn2M8rUTOKdQ2slDZIRCOeJYjCm1E6QWFpW46lfhCp2VZEC5UzkdEoGCCooJT8BIh3+zTAKJGYD1pxwvgRgAToNEYS7rTlC8UsVCyEya5PR+/B3ppytRJrnCzydB+z2fvC1htfdRCNMqEvcYpexzszzui4C8vE2QnXxSsu8SSNMPikX5/UwtyY9bLPL+jvL75zjlyhC/8/EfBAu+T9X1OV52zOx45i6ivO+jsMjvz+14KbAYNyY2ADsn73Zcqt4NHFvu/pAt3D/HLScIeC7HIrzqCKKpOaKjjiI6ahPRoEf02W8Rbd9ENJwlOhROPm4b0T5VdfI5bhPRPt4L0X62Eu3oEr3Aavcl+ByxjegNJxAdeJbo755KN9y9nWjxQGqb/DK3j3b98/tpTe/5Umo0sIibNZ37jotkluz3+tTtckttSeAw17ZatL9BWQwbOEhxepvx6Efjdcj9x4oPSkxJQjlgH6WCsXoNvumQSZCqIIY0Q9jgQ8nelLaXxsNWLBRzeWlDHxNjIK6BtJKWCRm+RlS5NLn2ML2rAueP8c2bmIC8qFOcVK0vKv6N+gCq5GOqYHQlpNx/lFOWCTXEC+BfUUohnVJjDrRktwhyiJOxwMvkIG4OdVWghDdc+mqlCEperA+hWmV0I0jooLWXRJ/A0okHaBFJKmlINeX2AG/wsDIhyKwcZnLIFUGV0sxX/nZixK3s5JqnpeXnV5GMKjIgeIbxjQTRZAjgtzyjJ39ebhmoUs5Qiugrnm3vlStktMkqEpEpU+46x8L+bp+xnBJdCRZ8D1trpKp9VVjkVgJuP6wqo0hjFTlB32xbV4tFVcZUPhb2/nhmFfmrCiq07wXqJthrX04sbFtt1ksjshhmH6ddD/8qTXSfi7OPJUyTk5O0YcMGar3t3AsKyWWnQkstZy+8fm/RM2ffTxMbXwKa8y/9FkOiTV87iTbMHG5SAXU1BWGFoi6/eNishy0LKf5AFZZuGiXlfeU3VcL6MZ78kBWgL00yNZeUi02Ixx1QLCgq+BiSr/eJ5X1Rx0Gfa5WpFP2xZQlC+7AJkQ2wRHAg/4vKk/YYlDeqZ8aAPZjnY3vNzqHlGM1AUgLRCf0UWTQuAjQ4TZqKtYxTiOuIygKZJXIgxQqUlJfNqFBfTSATYfMtvmcMZgyjh1gQY+XgU/JyyBLMaPYasRN6PglWKSoQh1yZ8neYU/m6fIU3bpVpX8Wq86wyyV/bnKREnMP8kccbWGWFvuTEBH2xE1XeP3wX82cWYPdisKhabVqSVkVC0NdcWVsMbNvGYZFjUNWeXFbs88fJBVbKK5WLlWKRj7UdW9s2PD8fTzwndwO8FFjwsywJRNtWg8UjZ3yONq5f+y9dU/1g7Zt9jHY++H5aVxyKVnAeD3Yt7Nixg7Zs2aKL3refd6GUWi6GA5qfT4b9fHJY2HGAuptTOmB8AUomV20zVm2IEs9X1pWBaNYeq6MablYOVlMhwuQQNvzB+ZnZXHLdza1UNZj1YSmCXpUnV1Dc8sxRRH19hr21TORyoJzeCPM+/Ml24kiTDczLQbEERYby1IjQt6sMS9ZUL4U6/FkofIwZSGF6SBqI/vK4l4HpEEzrSHlk83h0BZTSI5J5I8oF8myCUo2ukeBGiHUJTPGniEWIL1AoQ9VABAmWVqlL9xcQ2YHfviLdMbbPjnsW7wgFnNwT8L9ogCVjzVjo32knxaVvJFwQS2MILEmxig/tyyf25RQ55AIyYSdlOxGjb7nyypVpft6oFbNte9WMZCd/tK0kt2YjKLQ5X12uFgu4YcZhYRXDD4qFbZ9ValUEJcpWAGulWADbuAjJqqCOGtcquahSiqPIzKjxG5W58sPEAtiNcmtY6wbwqTo312XjsOD+TW87h+Y2nSlDwu5eLPisNVBcv2Ehgrk5zuwly26yLFt5TePZjq7H8vVLU3FLzzeB0Om9CtloZg7Nxxd9n5x7kA4/+OfUFhes6jMmB8ccc4wEJ+LTOve8i3S7535P6iAkP3NIKTKr0lIHkSpmTHh2ArEKwwKIbZ0RYY8BVV+5luqMHxOEp+CYtJmg6BP5CCtuUyAonm83oArZBli5K4DlfHOs8NMmTqFcMJRdUHAw86fCB8xeUUMikJOw4i9nh8D3ncrrcp8TFrraXPKJejrV55cxCce1PTjJWhGStoyKIChkmfACiMkNEawdHBcQgiFR5RGWhBIJCm4TuDz4dmIDCbsxRmFTUYyWGDvBwqUSJ4WQKmhrHpQKKKlUa+YIsSUibAEeHpZPAsaDg7DCMO7BkoL4gGDRsXKhtQ4QI1EeM8tJoUyt5SGRzGxvhtDOcb5lq1ysgqha6eW/l99FEN3qNpRfuXLJ5/xZVjmPIhW4n22/PbeKrOhkXJb7/HpMZCvBIm8DrsF7NaoN47DIiUzV2NnnWhlcLRZV2Fb1v6q9SycOPWLnb7sQGYVFFWlFn1eLRd721cjnSrEYR7LH3cOO42qwwD1Xg4WV3XxMrLyspB1V16NNq8WC3TvHHXccsWuBP5s2baJ169ZxFoPGILAFYUEKJaXArSWTbBaQF83UxtQXCYYJvouTZJAKEdQs2EuZWrIMpAWstT0ngqD3VGuCsnr4+MO9eTUcdi6MKxbVT6qk2C+upoC4u57cMxoujKKF1cE0JeW5g2okEqEZAmE1WlFMCC9L6YUNKYU6FqGKH8iG8UZgRZtesNDOQNhKZrugvSz5EsHBxTDXGwIlPnkQjuDqwM6E0rYgH1E2Qi0BEWg4TGTwUsyFHEeQIp8fMwRSUSkVQgTGpiqDcfdOjrMMVgsIvz4zECQz4/C9EJQoh0OHRYGzXCA+IbrTwsVRFpZu+2zJaXkCTuciRsKSAoyH9cuXsDAuvaqJ3fYVcrwapQBZw7VV9wOxySeo/HnjVsPj2m7bwH/nfm27WrWKJFciNrvBtg2TaT5RV7XJTtA5Fva9XAkWULJV+OXPzgmSfU/tpG5jEnIsVtpe28cSCa8o2Z4rFJw/ioSO6utKsc+vj6Q6C4y1BKY0pxkdgvdo3O8Wi+XeGzwzt3CNwwLvhD2nyiIGubdz/kqxWM5qM0ou8nd/HBZMCNh6ALnn+AO2KAhB4IMDtiAsMkFIVfdSB6pLLIuVwASR5cpHo7JTYRNEgJtagxqAJvXxVeEH7iBjKZM/csyzhTEIgmqltNUzCEB6MeBm0FoDsGBwW8sDbwPT0sNwDhQO8u6j4gnKG1jEe0a9HQIEA4PP6/ojSE6FN7hPzEuACoKKS4hXSBo+FVQI15fqAQVU40sfzintWImYiFCECDELMeshumQwlhzT0BZFi3AI2Eo0vC+kWZo0yqj4MzcC2hUn+IrfYd2AbBmuVHYXof/R/RLkx+zkmSZcu013yqxQRZViMQTz4HJIcSM6BjA92gm4SiHlE24Vw8d1mKD433ySsgprlOJb7vgoZTBu4siVdNUzSoQtM33m19v3Lp+Q8wncWtSgDJZT+qP6MkphV03+o469XFjgvrnJfDm5WA6LlRAXi1dOYpbOkWGWqjBvj5OL5eTS9rMKC/teVL0j6b1e+qRceY56j0a9p7j3/28sLBGpsjTnhHm17+nOnTtp+3atHozPlg3rQRCIuPa77OYYHR0hQl9Ws1DgJl0vKGZR4lLXPiivuPoMxX9MYJkIozw9lZLF32gUTPH6skAdBBOvja4Pyg8186XdIQMAVQEVVAQBRpNFChA0pEMEx2gf3E/aFfzscS8D1YKV+yeUJhdTylfW1PlqMbpQcsuIwgklrDEisLokLMr5kWFb57iTXyJAURHbDIGYwmkx0lGwWARbSAoaNLuPxZcPlQoNWZL+xhiBQP4QyIeKhRWrhujKgEgB+5C6qtUsdVTV3M1KXWUqd0MtXT1ZN5UpfmRIkH1B+H6pvHaSXjup5hOL/W4nLqvw7fVJ7pea1zGZ5RP3ciumfHKwxMD+ZifLccSlqr22TblCrSIM+fkWm/z6KldD1cQ+arVbpeCXw6QKi6pJdhwWo1aEIDd2krdj+3JhUdUetKEs52W3WY6Fbd8oHKvegyorD+41CgsQgNW+I1VjVfXeoG+jiH3VuzJqrPI2Wrnn33KSj/NtnMTSOcq40UMq+XLvH35fbpzwO+TCft+9e7cEJuKzecMknXnyiRykeEHBK8r+oE/dzqJOvDxhhl2JdNJNKy4NaGOLwyCurnTzn1BSN1rxkwJVqz4UtepnXcmzZULvbQUDGiDFBqScfBAKzZFPBXDUEpH8xGa9rYQk2pl10S2DiS2b4QbA1rtGkUelHirqRVVnVpdcdwEr5/hSZvEA8jzThqoXVI4Zk33yBSTzu1pMAhkyFgLBPwZkhMwJvWG2bWnWDh4LCbZhU7ndSInx4doGqbwxCBIsNrAISXAnitpIdUkd75IgQgak6UZWkHYpvzOpQGptqjhY4WRSS1dmLslf5ISxZYKJH4IRputCNcxSdUxT8yGunJKVLR9H/p6biXFslGLPFYQ9v4okVE2GVfLE147a8rhqos8nGEtorQIYlymB++LaUVhUrchyAm3vYZXNSgiAbQcU9EqwsAp0lKJ8MVhUkQSM82qxsG2swmIUPlaB5WmTo+4DHHMsMF+PImlVSs0eyxVj/g6MIym5nNixfjGyabHISVUuz2inxavKpZAT2nHjZJ9Z9Q4sh0VJd4YG49hKZIUvyS0IJ+3YSs/Nd6j19nMv0CK/iNYMfysQqsD5g0AtmJX5uyq9cmoVn8054QJ62A1Pruc0OtLtjeEUZkWBMr89Jhy8ixQX3JEo8r48H3XuMUHYlCGAjnPxPLg9UkphWi1at0ecOIYDjVYP5XpZSacdFrGGTpYI5NLrwOl12j6OSFUzNT78nVPcQCAiFiFHeqlwD6nf18JOXO6S+2j92GkySeOjAqargLTznYxgrNKHlTBe0vRcVciSvYBxC8WacG7ppbMBnWZLYo09USsNxl5W98HVwIPKgTD8Gywy/FzGhvsnW4tKo1o0GA5EhrivfT6/YCxULtjShToDwBITLV5eEJ5UCjtYfExWi1IG1EFQNKzFIE18WghquZWHnfAsXv1+X/qd+9mBhb0vtztiEcgexpOxEOz4/ZqYiGNt+w7ZsIF4eG/sqtxO6sBs1DE7IVpZzBVeLsdVsoO+VGEBGbdjqBYixY4/wBLtsFgBGxtfYidOS1bt5JlPvrZfFs+qCX9UxcdcaeK7lQuLhZVjWzdhHBZ4dtV8ks8XGAtuR07YRmFRpfT4XNQqwHgD1xeLBV/P48rtsm3Ds6yCQz/QZpyPZ2O8bDutwsXf0Bv58/Bu5ZaP3BKA51gs0CY+dxwWGC+MBXBGm1aCBc7N5VN0TZgjbF/tO2HfZ4wh/7tx40YhCbmct859x4UF35QVs6TahZgvVty8qpTOxiAzbkBfquZhVRdXriH9EJMpFKMo24lUMRDPktV+KCwjQoao+rDNbfTHmTQ5ABM7ZowSArwpeoOXkpUN9wXWCrgtJtZMRBN+CHUQBZEC+oxlY4KJivZdA+A0NYUVuShBuDuMS0T99Dyhp8wGNb6kPS64vawI8wnFTuoQJGwPrBgEwoNaBsEFpEKhrbGxDTroqmAYByZp/Gwob1bOmFSs8MVJItwVexcwGeB74aUQYhFecjupYYXPeClBVCISMyFQLwLmuDBJSFtQMjpUaSyteExApvQNQa+B5IIYWaWlniaN8QAW/Le6KDSmgP9VUqYEL8cijUWyKuCljFiMSOvDvfKxthNt1QRmrQ6MgSUWUGaWGOI5o1Y1+TNwba48+HpOd8rPV6wUHzvx8N9QFjkWVjFiUssVMeTGTlp2/KziRJt5rDAh5lhY4gXcgL1VAHaccV8oCkzmwMIqqCrCgWPAAljlONnnj1I+uEeuFK1MAjP0z8oK8LBEgu8JkjUKCys3lpBaLITMm+JTFguQOosFxtGSVDtPYKxyxWzxs+dA9sZhATnDuVbOgQ2wKM0T4Qvaj3Nl/jIEif8WXTYCCzwPZD7XXbbt9hl5P+17shypxJjYsc3JAYgY991iw+3ZtWuXZC7YT+vt554vQYqxYRJlPqSJNWtiGWCpXhc+mDCg9G3qmQxKIBNxJR3M+cksrS4KVhRopH7XVZ4Ef4VsAuwyKMpCFHI/ppuhvZiMOGOBAWSlLOmSwXetzValiUGW2gPBl97jFZ4UwEmV/RQ4PV8E3mDB99dnB4sDVrdmM5+y4LYkmwIYAj87IdqJSZ4d3Dg4N+rA6KaBpUDbrOZ8FGJSYgcmKxabWJoZAZsazQ/XALDkaprARl7msIoVssNY8AuxlhWoompJQbRCMbYhO4TJlvQTAajBuoTts2Gxic8J5ClacnIsRkT8gwTGqohh8uIxRJaLEletYFhKlwyZCzpmSvz4w7Jm3wurcKJcMPEN8g7mn0/o9uXHuWlcY7TpEqWbv2924rWTH9pln2snNyhnO9FYBY/JBNfjXz5uV+6jsMBEidUUn7cSLPDerhQL+97kWECx5EQEGOa/V2GB/lpClGPB5/R6vSVyYSd/qwQtFlUKwZJL2yY7pjkZ4zblBMMqIZzPx9CXKkJSVcLaEowqLNEHYIX5274b47CwK32rzHA/LDpWgoVVgrkuwHtmlfo4LCDnVjFaIjtKrvAcEC9cX9V+iwvme4sBZA0KXHQZstmi6zi10PYtzt9mkYb3y2LB18AqLfN3WDDi2fwbxyLwv/j8P9vexTZ+kV2mAAAAAElFTkSuQmCC;" vertex="1" parent="1">
          <mxGeometry x="49" y="220" width="993.06" height="550" as="geometry" />
        </mxCell>
      </root>
    </mxGraphModel>
  </diagram>
</mxfile>
